<?xml version="1.0" standalone="no"?>
<!DOCTYPE svg PUBLIC "-//W3C//DTD SVG 1.1//EN" "http://www.w3.org/Graphics/SVG/1.1/DTD/svg11.dtd" >
<svg xmlns="http://www.w3.org/2000/svg">
<metadata></metadata>
<defs>
<font id="OptimaBold-DemiDemi" horiz-adv-x="1024" >
<font-face units-per-em="2048" ascent="1638" descent="-410" />
<missing-glyph horiz-adv-x="532" />
<glyph horiz-adv-x="0" />
<glyph horiz-adv-x="2048" />
<glyph unicode=" "  horiz-adv-x="532" />
<glyph unicode="&#x09;" horiz-adv-x="532" />
<glyph unicode="&#xa0;" horiz-adv-x="532" />
<glyph unicode="!" horiz-adv-x="569" d="M139 139q0 -59 42 -102t104 -43q59 0 102 43t43 102t-43 102.5t-102 43.5q-61 0 -103.5 -43.5t-42.5 -102.5zM150 1253q0 -51 4 -88t12 -98l94 -674h43l98 656q2 16 5 26q10 68 13 105t3 84q0 61 -37 104t-98 43q-18 0 -40 -6t-44.5 -22.5t-37.5 -48t-15 -81.5z" />
<glyph unicode="&#x22;" horiz-adv-x="909" d="M162 1454l53 -633h92l70 633h-215zM532 1454l54 -633h92l70 633h-216z" />
<glyph unicode="#" horiz-adv-x="1062" d="M-4 410h205l-76 -410h154l75 410h252l-76 -410h154l76 410h241v143h-215l50 272h231v144h-205l72 399h-154l-71 -399h-252l71 399h-153l-72 -399h-242v-144h215l-49 -272h-231v-143zM381 553l49 272h252l-49 -272h-252z" />
<glyph unicode="$" horiz-adv-x="1062" d="M72 76q96 -49 191 -77t190 -28h20v-190h96v201q82 8 156 42.5t130 93t88 135.5t32 167q0 74 -26.5 145.5t-76.5 124.5q-43 49 -103 79t-157 65q-23 8 -43 16v473q96 -6 162 -53t88 -127h29q4 14 6 22q23 80 31 105.5t28 66.5q-109 47 -176 65.5t-166 18.5h-2v127h-96 v-133q-109 -14 -183.5 -57t-117.5 -102.5t-60.5 -124t-17.5 -125.5q0 -53 13.5 -108.5t46.5 -102.5q43 -61 105.5 -98.5t166.5 -78.5q37 -14 47 -18v-528h-10q-43 0 -81 6t-79 29.5t-81 71.5t-75 128h-28q-10 -80 -17.5 -118.5t-29.5 -112.5zM311 1110q0 68 41 125t121 78 v-422q-88 41 -125 87t-37 132zM569 90v469q78 -35 121 -88t43 -143q0 -78 -43 -143.5t-121 -94.5z" />
<glyph unicode="%" horiz-adv-x="1781" d="M113 1044q0 -162 99 -248.5t249 -86.5q57 0 114.5 20.5t105.5 63.5t76.5 110.5t28.5 155.5q0 158 -86.5 247t-244.5 89q-170 0 -256 -100.5t-86 -250.5zM299 1040q0 57 5 105.5t20.5 89.5t48.5 66.5t86 25.5q49 0 78.5 -29.5t43 -72.5t16.5 -82t3 -76q0 -47 -4 -93 t-17.5 -92t-43 -76t-78.5 -30q-84 0 -121 68.5t-37 195.5zM432 -43h98l820 1468h-99zM995 315q0 -162 99.5 -248.5t248.5 -86.5q57 0 115 20t106 63t76.5 111t28.5 156q0 158 -87 247t-245 89q-170 0 -256 -100.5t-86 -250.5zM1182 311q0 57 5 105.5t20.5 89.5t48 66.5 t85.5 25.5q49 0 79 -29.5t43.5 -72.5t16.5 -82t3 -76q0 -47 -4 -93t-17.5 -92.5t-43 -76t-79.5 -29.5q-84 0 -120.5 68.5t-36.5 195.5z" />
<glyph unicode="&#x26;" horiz-adv-x="1478" d="M113 309q0 -53 18.5 -101t45 -84t52 -58.5t45.5 -34.5q66 -39 123.5 -49.5t114.5 -10.5q137 0 236.5 48.5t203.5 127.5l123 -143h10q78 8 121 8q12 0 61.5 -3t102.5 -7q23 -2 31 -2v29q-47 39 -211 215q-33 33 -70 73q51 59 88 102.5t64.5 80.5t53.5 76.5t58 99.5 l-102 110l-18 -4q-14 -92 -52 -179t-149 -218q-49 55 -90 101t-74 86t-70.5 85t-83.5 103l-28 35q123 74 191.5 159.5t68.5 169.5q0 43 -14.5 86t-47 80t-89 59.5t-138.5 22.5q-162 0 -259 -91t-97 -224q0 -74 24.5 -150t112.5 -170q-68 -29 -129 -67.5t-113.5 -92t-83 -121 t-30.5 -147.5zM340 389q0 59 18.5 106.5t45 81t52 56t58.5 45.5q66 -84 105.5 -135t75.5 -95.5t70 -83t128 -147.5q-49 -45 -111.5 -79t-146.5 -34q-49 0 -101.5 18.5t-96.5 55.5t-70.5 91.5t-26.5 119.5zM530 1130q0 70 47.5 120t116.5 50q47 0 79 -19t48.5 -48t22.5 -56.5 t6 -48.5q0 -90 -51 -153.5t-127 -120.5q-61 82 -101.5 150.5t-40.5 125.5z" />
<glyph unicode="'" horiz-adv-x="530" d="M158 1454l53 -633h92l70 633h-215z" />
<glyph unicode="(" horiz-adv-x="645" d="M141 623q0 -260 99.5 -487.5t304.5 -401.5l45 49q-143 178 -200.5 391t-57.5 473q0 242 62.5 426t193.5 375l-45 33q-186 -162 -294 -391.5t-108 -466.5z" />
<glyph unicode=")" horiz-adv-x="645" d="M53 1432q143 -178 200.5 -391.5t57.5 -473.5q0 -242 -62.5 -426t-193.5 -374l45 -33q186 162 294 391t108 467q0 260 -99.5 487.5t-304.5 401.5z" />
<glyph unicode="*" horiz-adv-x="833" d="M78 1165q63 -20 192 -80q47 -25 78 -36q-25 -12 -42 -21.5t-43.5 -21t-49.5 -20.5t-131 -52q27 -43 38 -64.5t30 -60.5q43 33 78.5 60.5t55 42t42 30.5t55.5 39q0 -20 -7 -86t-12 -107q-10 -86 -10 -92q8 0 23 2q27 4 43 4t43 -4q14 -2 22 -2q-6 41 -8 61.5t-8 94.5 q-2 39 -10 131l53 -39q57 -41 141 -110l33 -27q18 39 29.5 60.5t38.5 62.5q-33 12 -67 25.5t-64.5 27.5t-62.5 29.5t-75 36.5l9 4q92 41 150 66.5t114 41.5q-8 14 -15 29q-16 29 -27.5 52.5t-23.5 49.5q-14 -12 -26 -22q-18 -16 -47 -41t-53.5 -43.5t-51.5 -37t-55 -38.5 l18 201q2 37 10 100q-33 -6 -65 -6q-33 0 -68 6q14 -82 19.5 -138t9.5 -163q-20 12 -50 34.5t-70 53.5t-68.5 54.5t-49.5 39.5q-16 -41 -27.5 -62.5t-37.5 -64.5z" />
<glyph unicode="+" horiz-adv-x="1366" d="M152 559h464v-465h134v465h464v133h-464v465h-134v-465h-464v-133z" />
<glyph unicode="," horiz-adv-x="530" d="M10 -344l45 -21l273 416q25 39 39 69t14 62q0 49 -33 77t-76 28q-57 0 -86.5 -42t-48.5 -112z" />
<glyph unicode="-" horiz-adv-x="833" d="M137 403q47 2 130 4.5t134 2.5t156 -4q98 -2 139 -3q-2 12 -4 37q-6 53 -6 70q0 25 8 84q2 16 2 22q-98 -2 -165.5 -4t-139.5 -2q-170 0 -254 6q6 -29 8 -48t2 -46q0 -33 -8 -106z" />
<glyph unicode="." horiz-adv-x="530" d="M121 141q0 -59 42 -102t103 -43q59 0 102.5 43t43.5 102t-43 102.5t-103 43.5q-61 0 -103 -43.5t-42 -102.5z" />
<glyph unicode="/" horiz-adv-x="796" d="M49 -61h135l564 1509h-136z" />
<glyph unicode="0" horiz-adv-x="1062" d="M88 674q0 -348 104.5 -524.5t335.5 -176.5q215 0 331 186.5t116 524.5q0 51 -3 110.5t-11.5 123t-23.5 127t-40 112.5q-51 109 -145 168t-215 59q-139 0 -223.5 -61t-137.5 -162q-49 -94 -68.5 -206.5t-19.5 -280.5zM344 723q0 80 4 164q2 55 7 110.5t14 98.5 q16 92 56 146t107 54q45 0 77 -22.5t49.5 -59t27.5 -77.5t16 -95q4 -35 10.5 -144.5t6.5 -215.5q0 -80 -5 -192.5t-9 -159.5q-4 -41 -13.5 -85t-28 -86t-52.5 -70t-81 -28q-45 0 -75.5 19.5t-48 51.5t-26.5 68t-18 87q-12 84 -15 189.5t-3 246.5z" />
<glyph unicode="1" horiz-adv-x="1062" d="M123 1081q33 -37 46 -51t28 -29q2 -4 14 -16q18 10 65.5 36t91.5 50.5t88 51t60 36.5v-379q0 -211 -1 -325.5t-3 -189.5t-6 -126t-14 -139q12 0 49 4q66 8 94 8q33 0 96 -8q23 -4 35 -4q-8 109 -11 245t-3 290q0 217 4 423q2 137 7 255t11 178l-22 14q-20 -12 -44 -26.5 t-63 -37t-67.5 -38t-45.5 -23.5q-14 -8 -40 -20q-129 -61 -202 -94t-167 -68v-17z" />
<glyph unicode="2" horiz-adv-x="1062" d="M61 0q100 6 209 9t242 3q117 0 193 -2q39 0 243 -10h15q-8 53 -9 104q0 68 11 119q-68 -10 -198 -12t-433 -2q12 8 60 53t108.5 104.5t115 114t78.5 82.5q63 70 104.5 126t65 107.5t33.5 103.5t10 116q0 100 -37.5 172t-100 113.5t-137.5 61t-151 19.5q-160 0 -260 -66.5 t-160 -203.5l121 -121l17 13q6 63 19 110t48 90q63 76 162 76q61 0 103 -26.5t67 -70.5t35 -98.5t10 -115.5q0 -141 -51 -257t-129 -218q-39 -49 -88 -104.5t-106.5 -115t-108.5 -108.5t-101 -94v-72z" />
<glyph unicode="3" horiz-adv-x="1062" d="M41 109q82 -74 180 -103t182 -29q98 0 193.5 26t174.5 77t125 131t46 182q0 84 -27.5 145.5t-75.5 100.5t-110.5 59.5t-136.5 24.5q-14 0 -14 6t8 8q145 43 218 123t73 215q0 147 -110 224t-294 77q-129 0 -235.5 -46t-171.5 -150q53 -59 70.5 -83t35.5 -55h21 q16 133 75.5 186.5t147.5 53.5q98 0 156.5 -58.5t58.5 -185.5q0 -131 -63.5 -200.5t-172.5 -69.5q-20 0 -34.5 3t-38.5 11q10 -31 10 -75q0 -33 -10 -58l30 6q55 10 82 11q125 0 186.5 -81t61.5 -198q0 -150 -71.5 -233.5t-188.5 -83.5q-66 0 -117 23.5t-83 58t-48 68.5 t-20 56h-23q-33 -70 -48 -97t-42 -70z" />
<glyph unicode="4" horiz-adv-x="1062" d="M49 354q41 2 92.5 3t100.5 1q211 0 364 -2q0 -164 -2 -215q-2 -35 -5 -67.5t-9 -73.5q16 2 47 6q59 6 92 6q29 0 84 -8q14 -2 31 -4l-6 76.5t-2 58.5q-2 47 -2 221q39 0 110 -4q23 0 64 -2q-6 27 -8.5 42.5t-2.5 43.5q0 31 2 49.5t9 44.5q-88 -4 -109.5 -4h-64.5 q0 143 4 439q2 117 4 238.5t4 164.5q-49 -12 -90 -12q-20 0 -46 4t-44 8q-10 -18 -19.5 -33.5t-20 -31t-32 -46t-57.5 -81.5l-295 -418q-6 -8 -47 -68q-63 -94 -95 -135q-6 -6 -12 -14q-16 -25 -27.5 -40.5t-11.5 -23.5v-123zM197 526l409 584v-584h-409z" />
<glyph unicode="5" horiz-adv-x="1062" d="M47 115q80 -78 165 -105.5t191 -27.5q104 0 199.5 28.5t172.5 87t121 146.5t44 202q0 182 -120 277.5t-310 95.5q-66 0 -111 -10t-104 -31q0 41 2 90v82q0 96 1 139.5t3 67.5h428h87t67 -4q-2 27 -4 37q-6 55 -7 74q0 39 9 84q2 16 2 20q-90 -6 -178.5 -9t-157.5 -3 q-92 0 -173 3t-188 9l-10 -18q8 -57 12.5 -100.5t6.5 -82.5q2 -57 2 -209q0 -145 -7 -292l25 -21q57 35 104.5 54.5t102.5 19.5q129 0 193.5 -87t64.5 -224q0 -154 -71.5 -244t-178.5 -90q-109 0 -169 50t-105 157h-21q-18 -45 -30.5 -69t-57.5 -97z" />
<glyph unicode="6" horiz-adv-x="1062" d="M88 571q0 -121 24.5 -227t78 -189t143.5 -131.5t217 -48.5q74 0 150.5 25t143 78t107.5 139t41 203q0 201 -112.5 304t-280.5 103q-160 0 -258 -116q10 109 32.5 208t67.5 183t117 134t172 50q33 0 48.5 -3t33.5 -9l10 6q-12 27 -16 41t-12 45v2q-6 0 -17 2q-57 6 -100 6 q-133 0 -241.5 -57t-187.5 -166t-120 -257t-41 -325zM346 397q0 66 8 122t30 104.5t59.5 76t93.5 27.5q109 0 154.5 -86t45.5 -235q0 -61 -7 -118t-27.5 -109t-60.5 -85t-103 -33t-104.5 37t-60 92.5t-23.5 106.5t-5 100z" />
<glyph unicode="7" horiz-adv-x="1062" d="M104 14l5 -14l24 4q49 8 76 8q43 0 106 -12h4q76 147 148 283.5t168 312.5q37 72 41 78q18 35 76.5 138t116 203.5t108.5 187.5t61 100v49q-367 0 -534 2q-129 2 -230.5 5t-156.5 9q2 -12 4 -35q6 -63 6 -98q0 -31 -2 -55.5t-8 -59.5q86 6 140 8t114 5q57 2 141 2h281 q-29 -53 -118 -206t-191.5 -322t-193.5 -314.5t-134 -204.5z" />
<glyph unicode="8" horiz-adv-x="1062" d="M84 389q0 -203 123 -308.5t332 -105.5q76 0 151.5 22.5t141 74t105.5 134.5t40 197q0 150 -66.5 236t-232.5 129v8q115 29 181.5 96.5t66.5 180.5q0 86 -33 148.5t-89 101t-126 56t-146 17.5q-178 0 -285.5 -82t-107.5 -241q0 -119 73 -190.5t177 -90.5v-10h-2 q-51 -14 -96 -33.5t-94.5 -60.5t-81 -110t-31.5 -169zM346 391q0 51 7 106.5t26.5 105.5t57.5 84t95 34q63 0 102.5 -37t57 -91t21.5 -103.5t4 -98.5q0 -61 -6 -115.5t-25.5 -103.5t-57.5 -79t-98 -30q-61 0 -99 34t-55.5 84t-23.5 102.5t-6 107.5zM377 1053q0 31 5 68.5 t20.5 75.5t47 63.5t80.5 25.5q55 0 87 -27.5t47.5 -66.5t18.5 -76t3 -74q0 -70 -14.5 -116.5t-37 -72.5t-49 -35t-53.5 -9q-47 0 -77.5 23.5t-48 62.5t-23.5 79t-6 79z" />
<glyph unicode="9" horiz-adv-x="1062" d="M70 928q0 -133 47 -217t113.5 -124t123 -51.5t92.5 -11.5q72 0 148 24.5t123 82.5q0 -68 -9.5 -155t-40 -180t-92 -156.5t-159.5 -63.5q-76 0 -131.5 27.5t-94.5 66.5l-24 -4q18 -47 24.5 -71.5t18.5 -76.5q49 -25 98 -34t82 -9q180 0 299 85t180.5 212t83 255t21.5 235 q0 35 -3 84t-13.5 106.5t-30 117.5t-49.5 110q-41 70 -92.5 109.5t-100.5 58t-87 22.5t-81 4q-209 0 -327.5 -119.5t-118.5 -326.5zM319 963q0 45 7.5 98t28 106.5t60.5 89t99 35.5q61 0 102 -33.5t61.5 -85t28 -104.5t7.5 -104q0 -49 -4 -100.5t-22.5 -109t-60.5 -96 t-110 -38.5q-100 0 -148.5 94t-48.5 248z" />
<glyph unicode=":" horiz-adv-x="569" d="M139 141q0 -59 42 -102t104 -43q59 0 102 43t43 102t-43 102.5t-102 43.5q-61 0 -103.5 -43.5t-42.5 -102.5zM139 799q0 -59 42 -102.5t104 -43.5q59 0 102 43t43 103q0 59 -43 102t-102 43q-61 0 -103.5 -43t-42.5 -102z" />
<glyph unicode=";" horiz-adv-x="569" d="M31 -344l45 -21l272 416q31 47 43 73t12 58q0 49 -32.5 77t-75.5 28q-49 0 -80 -32t-55 -122zM139 799q0 -59 42 -102.5t104 -43.5q59 0 102 43t43 103q0 59 -43 102t-102 43q-61 0 -103.5 -43t-42.5 -102z" />
<glyph unicode="&#x3c;" horiz-adv-x="1366" d="M170 436l1026 -436v143l-864 365l864 364v144l-1026 -436v-144z" />
<glyph unicode="=" horiz-adv-x="1366" d="M152 401h1062v134h-1062v-134zM152 719h1062v133h-1062v-133z" />
<glyph unicode="&#x3e;" horiz-adv-x="1366" d="M170 0l1026 436v144l-1026 436v-144l864 -364l-864 -365v-143z" />
<glyph unicode="?" horiz-adv-x="757" d="M86 1325l14 -121h19q55 109 164 109q29 0 58.5 -7.5t56 -23.5t43 -46t16.5 -73q0 -33 -13.5 -69.5t-64.5 -87.5l-72 -72q-59 -59 -94 -106.5t-50.5 -81t-19.5 -57t-4 -54.5q0 -102 67.5 -168t190.5 -66q39 0 58.5 3.5t52.5 17.5l22 76l-4 4l-4 -2q-53 -27 -86 -27 q-41 0 -68.5 26.5t-27.5 67.5q0 23 5 39.5t20.5 37t44 51t84.5 87.5l4 4q98 100 140 167t42 167q0 121 -99.5 202t-244.5 81q-86 0 -140.5 -20.5t-109.5 -57.5zM180 141q0 -59 42 -102t104 -43q59 0 102 43t43 102t-43 102.5t-102 43.5q-61 0 -103.5 -43.5t-42.5 -102.5z " />
<glyph unicode="@" horiz-adv-x="1638" d="M80 651q0 -170 58.5 -301t157.5 -217t227 -130t268 -44q188 0 333.5 46t276.5 140l-33 56q-117 -82 -249 -126t-273 -44q-137 0 -253 45t-198 128t-126 196.5t-44 248.5q0 137 51.5 265t143.5 227.5t216 156t265 56.5q127 0 233.5 -38t184.5 -107.5t120 -167t42 -212.5 q0 -90 -25.5 -175t-69 -150.5t-97.5 -103.5t-109 -38q-41 0 -67 23t-26 76q0 45 31 155.5t123 411.5h-147l-31 -104q-16 63 -68.5 95t-122.5 32q-82 0 -157.5 -43t-133 -113t-90 -155t-32.5 -162q0 -137 68.5 -213t187.5 -76q88 0 148.5 46t94.5 116q8 -84 58.5 -123 t136.5 -39q82 0 155.5 43t130 118.5t88.5 175t32 208.5q0 125 -47.5 234.5t-134.5 189t-208.5 123.5t-267.5 44q-174 0 -323.5 -56t-262 -160.5t-174 -247t-61.5 -310.5zM618 526q0 61 23 140t62.5 150t91 116t108.5 45q45 0 78 -32t33 -87q0 -29 -9.5 -77t-25.5 -101 t-35.5 -106.5t-34.5 -84.5q-61 -127 -161 -127q-61 0 -95.5 44t-34.5 120z" />
<glyph unicode="A" horiz-adv-x="1327" d="M-10 0q6 2 26 4q41 8 66 8t80 -8q8 -2 18 -4q23 82 67 197.5t97 246.5q164 8 246 9q88 0 256 -9h6l86 -217l86 -227q18 2 47 4q70 8 105 8q39 0 120 -8q31 -4 39 -4q-33 72 -64.5 143.5t-94 211t-146.5 331.5q-86 201 -157.5 378t-137.5 361q-37 -10 -65 -10 q-31 0 -68 10q-33 -115 -110.5 -298t-264.5 -599zM391 571l209 504l193 -504h-7q-123 -8 -182 -8q-47 0 -127 4q-66 4 -86 4z" />
<glyph unicode="B" horiz-adv-x="1214" d="M168 1405q16 -258 16 -678q0 -176 -3 -364.5t-11 -362.5q29 0 84 4q76 6 113 6q39 0 129 -4q90 -6 129 -6q150 0 232.5 33t137.5 86q47 43 85 107.5t38 162.5q0 96 -30.5 164t-85 110t-126 62t-163.5 31q141 20 243.5 104t102.5 215q0 96 -33 160.5t-92.5 101.5 t-135 52.5t-167.5 15.5q-6 0 -41 -1t-96 -3q-129 -6 -148 -6q-51 2 -82 3t-71 5zM432 285v411q41 6 74 6q168 0 255 -68.5t87 -236.5q0 -147 -77 -221t-224 -74q-33 0 -88 9l-23 4q-2 41 -3 91t-1 79zM432 801v329q0 55 4 166q72 6 142 7q104 0 160.5 -63.5t56.5 -170.5 q0 -133 -72 -202.5t-207 -69.5q-27 0 -84 4z" />
<glyph unicode="C" horiz-adv-x="1441" d="M104 680q0 -168 56.5 -301t158 -224.5t234.5 -137.5t283 -46q285 0 518 129l22 203l-22 14q-41 -49 -82 -86.5t-98.5 -72.5t-130 -54.5t-162.5 -19.5q-129 0 -218.5 51t-152.5 135q-43 57 -69.5 121t-38 120t-14.5 100t-3 87q0 293 135 453t389 160q102 0 175 -21.5 t116 -52.5t64.5 -59.5t35.5 -59.5h21l61 201q-121 55 -235.5 78.5t-243.5 23.5q-199 0 -350.5 -56t-250.5 -157.5t-148.5 -235.5t-49.5 -292z" />
<glyph unicode="D" horiz-adv-x="1593" d="M170 0l47 4q96 6 145 6q57 0 189 -4q131 -6 188 -6q135 0 238.5 25.5t206.5 91.5q147 94 226 253.5t79 372.5q0 162 -59.5 296.5t-176.5 224.5q-113 88 -278 120q-68 12 -133.5 16.5t-149.5 4.5q-66 0 -186 -6q-115 -4 -168 -4q-43 0 -127 6l-41 4q2 -59 6 -131 q4 -111 4 -135q2 -55 3 -124t1 -261q0 -289 -2 -379zM436 403v635q0 63 6 189l4 59q117 10 211 10q154 0 260.5 -48t171 -129t92 -179t27.5 -205q0 -184 -52 -310t-131 -193.5t-158 -95t-142 -27.5q-20 0 -62 1t-124 5t-93 4l-4 69q-6 143 -6 215z" />
<glyph unicode="E" d="M170 0q197 12 383 12q193 0 377 -12q-10 29 -10 74t10 67q-74 -4 -156 -6t-196.5 -5t-137.5 -3v555q96 0 285 -4q51 -2 158 -10q-10 25 -11 69q0 37 11 74q-33 -4 -93.5 -7t-130.5 -5q-100 -2 -219 -2v481h186.5t98.5 -4l193 -10q-10 27 -11 75q0 25 11 66 q-59 -2 -175 -6q-150 -6 -202 -6q-74 0 -181.5 4t-189.5 8q4 -70 8 -170t6 -217q4 -184 4 -299q0 -88 -2 -221q-2 -94 -3 -148.5t-3 -93.5q-2 -88 -10 -244v-12z" />
<glyph unicode="F" d="M178 1405q20 -393 21 -680q0 -244 -2 -356q-2 -61 -5.5 -134t-11.5 -235q59 12 133 12q90 0 148 -12q-4 25 -5 39t-3 51v16q-2 63 -2 302v274h218t138 -4l113 -4q-10 45 -11 69q0 33 11 68l-39 -2q-82 -4 -140.5 -6t-148.5 -2h-141v477q133 0 242.5 -4t258.5 -14 q-10 33 -10 67q0 31 10 78q-23 0 -96 -4q-199 -8 -291 -8q-39 0 -85 1t-110.5 3t-117.5 5t-74 3z" />
<glyph unicode="G" horiz-adv-x="1593" d="M104 680q0 -168 56.5 -301t158 -224.5t234.5 -137.5t283 -46t307 38t287 106q-2 43 -4.5 88t-2.5 98q0 61 4 166q2 57 5.5 104t7.5 74l-6 -2q-39 -6 -63.5 -9t-59.5 -3q-45 0 -123 12l-23 2q12 -201 13 -301q0 -25 -1 -62.5t-6 -123.5q-57 -37 -133.5 -55.5t-156.5 -18.5 q-129 0 -218.5 51t-152.5 135q-68 88 -96.5 194.5t-28.5 233.5q0 293 135 453t389 160q102 0 175 -21.5t116 -52.5t64.5 -59.5t35.5 -59.5h21l61 201q-121 55 -235.5 78.5t-243.5 23.5q-199 0 -350.5 -56t-250.5 -157.5t-148.5 -235.5t-49.5 -292z" />
<glyph unicode="H" horiz-adv-x="1554" d="M166 1405q20 -225 20 -473q0 -582 -18 -932q18 2 49 6q63 6 96 6q39 0 105 -8q27 -4 37 -4q0 6 -2 14q-8 125 -12.5 212t-4.5 259v205q233 8 350 8q111 0 332 -8l-2 -330q0 -23 -2 -81t-4 -85.5t-6 -102.5t-4 -79v-12q18 2 41 4q68 8 98 8q33 0 100 -8l50 -4 q-14 100 -17.5 209.5t-3.5 273.5q0 125 1 238t4 238.5t8 248.5t16 197l-21 -2q-47 -4 -74.5 -7t-48.5 -3q-25 0 -62.5 3t-66.5 7q-18 2 -20 2q4 -72 4 -88q4 -55 5 -84t1 -59q2 -33 3 -160t1 -193h-6q-240 -8 -367 -8q-104 0 -309 8q0 147 1 239.5t4 153t6.5 104.5t7.5 85v2 q-29 -4 -72 -8t-70 -4q-18 0 -55 3t-72 7z" />
<glyph unicode="I" horiz-adv-x="645" d="M176 0q18 0 64 6q57 6 84 6q25 0 79 -6q45 -6 64 -6q-12 119 -16.5 282.5t-4.5 409.5q0 244 3 377q4 104 8 194.5t12 141.5q-98 -12 -145 -12q-18 0 -58.5 3t-81.5 9h-6q14 -135 17.5 -237.5t3.5 -235.5q0 -346 -4.5 -558t-18.5 -374z" />
<glyph unicode="J" horiz-adv-x="645" d="M-29 -207l15 -98h8q86 8 153.5 24.5t139.5 59.5q63 39 102 95t56.5 118.5t21.5 117t4 121.5q0 18 -2 80v60q0 94 2 374v283q0 41 4 125t8 188l4 64q-57 -8 -85.5 -10t-55.5 -2q-20 0 -61 3t-86 9q6 -92 11 -189.5t5 -173.5v-753q0 -154 -5 -233t-27.5 -134t-72 -87 t-139.5 -42z" />
<glyph unicode="K" horiz-adv-x="1327" d="M164 0q18 0 61 6q57 6 82 6q31 0 96 -8q33 -4 48 -4q-12 147 -15.5 295.5t-3.5 374.5q143 -158 259 -309.5t261 -358.5l2 -2q23 2 64 6q82 6 110 6q41 0 82 -2t101 -10q-47 43 -118 125t-143.5 171t-141 178t-132.5 171q-2 4 -8 12l-109 144q51 55 83 90t67 70.5t50 51 t65 62.5l20 21q88 86 176 168t158 141q-74 -12 -137 -12q-61 0 -97 12q-37 -51 -95 -118.5t-144 -160.5q-8 -8 -23 -24q-100 -109 -171.5 -180.5t-178.5 -165.5q0 223 2 325l2 49q0 78 3 151t12 124q-94 -12 -144 -12q-29 0 -96 8q-23 2 -47 4q8 -94 10 -134t6 -91 q2 -74 2 -248q0 -428 -2 -547q-2 -78 -6 -172t-10 -213z" />
<glyph unicode="L" d="M176 0q117 6 207 9t184 3q57 0 144.5 -3t187.5 -7l59 -2q-6 20 -8 32.5t-2 37.5q0 31 2 46t8 31v5q-41 -6 -106.5 -10.5t-153.5 -6.5q-96 -2 -215 -2h-37q-2 70 -2 96q-4 178 -4 293q0 229 5.5 439t15.5 444q-76 -12 -144 -12q-43 0 -73.5 3t-67.5 9q0 -4 1 -41t3 -96 q4 -106 4 -129q4 -158 6 -181v-112v-287q0 -23 -3 -133.5t-5 -196.5q-6 -225 -6 -229z" />
<glyph unicode="M" horiz-adv-x="1857" d="M74 0q53 12 86 12q39 0 94 -12q10 213 32.5 440.5t53.5 468.5q4 -8 16.5 -30.5t57.5 -102.5q115 -205 131 -237q49 -92 91 -173t77 -147q90 -170 114 -219q25 4 39 4q12 0 37 -4h4q43 98 103.5 220t127 248t136 251t121.5 211q0 -14 5 -62.5t13 -122t15.5 -134 t15.5 -130.5q14 -123 16 -145q2 -12 10 -135q6 -109 9 -125l6 -76q51 6 81.5 9t57.5 3q18 0 63.5 -4t84.5 -8q-10 43 -20.5 107.5t-22 136t-21.5 147.5t-18 131q-27 197 -46.5 368t-35.5 345l-17 170q-20 -6 -43 -6t-45 6q-82 -164 -139 -277.5t-107.5 -208t-107.5 -196.5 t-137 -244l-76 -133l-111 197q-104 186 -138 247.5t-77 144.5t-80.5 157.5t-91.5 183.5l-63 129q-4 0 -15 -2q-23 -4 -30 -4q-23 0 -47 6q-8 -86 -34 -276.5t-55.5 -390t-60.5 -393t-47 -282.5z" />
<glyph unicode="N" horiz-adv-x="1554" d="M162 0q49 12 82 12q18 0 59 -8q27 -4 33 -4q0 6 -2 35q-10 135 -12.5 165.5t-2.5 48t-2 79.5q-2 166 -4 312t-2 333q84 -76 213 -202t268.5 -265t270.5 -273.5t229 -242.5q29 4 43 4q12 0 41 -4v106q-2 94 -2 97v247q-2 174 -2 273q0 121 1 200.5t3 161.5t7.5 167 t11.5 163q-49 -12 -86 -12q-39 0 -88 12q24 -278 24 -500v-18v-455l-14 12q-33 27 -48.5 40.5t-39.5 35.5l-242 238q-180 176 -328.5 330.5t-296.5 316.5h-4q-29 -4 -43 -4q-16 0 -49 4q4 -381 4 -576v-278q0 -49 -2 -140.5t-4 -125.5z" />
<glyph unicode="O" horiz-adv-x="1744" d="M109 672q0 -164 58 -295t162.5 -221t244 -137.5t298.5 -47.5q170 0 310.5 52.5t243 151.5t156.5 237.5t54 308.5q0 178 -62.5 311t-169 220t-242.5 128t-283 41q-160 0 -298.5 -45t-245 -137t-166.5 -234.5t-60 -332.5zM389 696q0 111 27.5 220.5t85 200.5t152 145.5 t218.5 54.5q131 0 224.5 -48t150 -133t83 -197t26.5 -243q0 -115 -28 -224.5t-86 -199.5t-151.5 -143t-218.5 -53q-127 0 -220 52t-150.5 140t-85 198.5t-27.5 229.5z" />
<glyph unicode="P" horiz-adv-x="1175" d="M176 0q68 12 141 12q74 0 144 -12l-2 18q-6 70 -9.5 130.5t-3.5 173.5v307l23 -2q39 -4 63.5 -5t55.5 -1q141 0 241.5 35.5t161 96t87 134.5t26.5 151q0 104 -37 172t-102 117q-66 47 -138.5 62.5t-162.5 15.5q-6 0 -40 -1t-94 -3q-129 -6 -145 -6q-59 0 -103 2t-83 6 q-12 2 -19 2l10 -258q4 -61 4.5 -149.5t0.5 -200.5l-5 -502q0 -37 -3 -98.5t-11 -196.5zM446 729v567h7q90 8 137 9q123 0 186.5 -76t63.5 -203q0 -47 -13.5 -98t-45 -98.5t-88 -78t-138.5 -30.5q-35 0 -102 8h-7z" />
<glyph unicode="Q" horiz-adv-x="1744" d="M104 672q0 -49 7.5 -106.5t28 -122t60.5 -134t101 -131.5q121 -121 262.5 -164t304.5 -43q45 0 68 2l469 -366q45 31 110.5 67.5t116.5 59.5l-463 286q215 76 339 260.5t124 440.5q0 178 -62.5 311t-169 220t-242.5 128t-284 41q-160 0 -298 -45t-244.5 -137t-167 -234.5 t-60.5 -332.5zM385 662q0 184 44 313t115.5 203.5t155.5 106.5t170 32q121 0 213.5 -46t151.5 -127t88 -184.5t29 -218.5q0 -141 -22.5 -254.5t-82.5 -203.5q-63 -96 -162.5 -151.5t-212.5 -55.5q-133 0 -229 56t-152.5 145.5t-81 191t-24.5 193.5z" />
<glyph unicode="R" horiz-adv-x="1290" d="M176 0q90 12 141 12q37 0 101 -8q18 -2 37 -4q0 33 -4 180q-2 76 -3.5 127t-1.5 70v291h50q104 -147 189 -270.5t153 -227.5q18 -29 53 -84q35 -57 53 -86l12 2q47 6 75 8t79 2q47 0 81 -2t89 -8l12 -2q-57 72 -91 115t-70.5 93t-79.5 108.5t-105 144.5q-20 29 -53 78 t-53 75l-58 82q154 29 255.5 124t101.5 255q0 66 -24.5 126.5t-70.5 103.5q-61 59 -135.5 79.5t-185.5 20.5q-6 0 -47 -1t-113 -3q-158 -6 -178 -6q-59 0 -103 2t-83 6q-12 2 -19 2q6 -109 8 -163t5 -116q2 -74 2 -282q0 -276 -2 -414q-2 -84 -7.5 -199.5t-9.5 -214.5v-16z M446 764v530q10 0 39 4q86 6 107 7q57 0 104 -11.5t86 -40.5q49 -37 67.5 -89t18.5 -124q0 -53 -15 -102t-49 -90t-88 -65.5t-128 -24.5q-41 0 -111 4z" />
<glyph unicode="S" horiz-adv-x="1099" d="M94 76l2 -2q92 -45 180.5 -74t200.5 -29q135 0 234.5 39t163 104.5t93 144.5t29.5 161q0 61 -21.5 135t-78.5 135q-39 45 -88 69.5t-176 74.5l-15 6q-162 61 -223 109t-61 151q0 96 62.5 158.5t178.5 62.5q100 0 173 -46t96 -132h28q14 61 24.5 92t39.5 102 q-96 43 -168 63.5t-172 20.5q-133 0 -226.5 -36.5t-147.5 -96t-78.5 -131.5t-24.5 -145q0 -131 56 -215t202 -148q31 -14 106 -43q74 -29 105 -43q25 -10 49.5 -24.5t52 -42t47 -69.5t19.5 -99q0 -111 -74 -183.5t-195 -72.5q-104 0 -177.5 47t-139.5 188h-29v-8 q-8 -76 -15 -112.5t-32 -110.5z" />
<glyph unicode="T" horiz-adv-x="1138" d="M16 1253q39 4 85 6.5t108 4.5q94 4 127 4h102v-21q4 -135 4 -207l2 -571q0 -117 -14 -354q-4 -76 -6 -115l29 4q45 4 68.5 6t41.5 2q16 0 56 -3t94 -9v8q-8 61 -11.5 117.5t-3.5 155.5v757q0 82 4 230q129 0 226.5 -3t181.5 -12q0 4 -2 13q-8 43 -8 61q0 20 10 78 q-236 -12 -547 -12q-154 0 -296 3t-251 9q10 -41 11 -76q0 -35 -11 -76z" />
<glyph unicode="U" horiz-adv-x="1478" d="M156 1405q4 -72 7 -179.5t3 -189.5v-557q0 -29 1 -58.5t3 -49.5q16 -113 72.5 -191t139.5 -123t178 -63.5t196 -18.5q90 0 183 22.5t161 65.5q106 68 156.5 166.5t52.5 272.5q2 51 2 129q6 256 8 369.5t5 187.5t5 119l6 98q-2 0 -28 -4q-45 -8 -68 -8q-25 0 -65 8 q-18 2 -27 4q18 -299 18 -801q0 -119 -6 -179t-20 -97q-35 -94 -127 -152.5t-215 -58.5q-106 0 -187.5 32.5t-126.5 92.5q-23 31 -35 63.5t-18 83.5t-8 127t-2 205q0 182 1 306t5 222l6 156q-82 -12 -133 -12q-49 0 -143 12z" />
<glyph unicode="V" horiz-adv-x="1290" d="M-8 1405l43 -98q82 -188 90 -209q8 -20 36.5 -90t59.5 -144q86 -215 92 -227q53 -127 81 -196.5t48.5 -123t33.5 -89t54 -152.5q2 -2 27 -76q4 2 14 4q20 4 37 6t43 2q31 0 64 -8q8 -2 12 -4q133 373 293 754q31 74 69.5 164t76.5 175t76 164.5t71 147.5q-68 -12 -99 -12 q-27 0 -94 12q-25 -84 -68.5 -204t-88.5 -239.5t-87 -226t-73 -180.5l-10 -29l-78 -192q-18 45 -47 108q-66 143 -95 217q-61 160 -102 267.5t-69.5 189.5t-47 141.5t-45.5 147.5q-102 -12 -151 -12t-91 3t-75 9z" />
<glyph unicode="W" horiz-adv-x="2048" d="M14 1405q113 -297 211 -574q63 -182 112.5 -324t117.5 -351l51 -156q57 12 84 12t78 -12l24 82q33 106 47.5 151.5t28.5 88.5l33 96q43 129 65.5 192.5t32.5 93t64 175.5l61 170q10 -29 43 -117q31 -90 41 -119q8 -25 76 -223q18 -53 41.5 -123t34.5 -100q10 -27 20 -60 t22.5 -69.5t73.5 -237.5q6 0 25 4q43 8 63 8q23 0 66 -8q4 -2 16 -4q66 207 83.5 257t38 110.5t79.5 228.5q37 104 75 208.5t72.5 198t69.5 180.5t88 222q-45 -12 -92 -12q-49 0 -94 12q-29 -100 -51.5 -182t-40 -141.5t-37 -121t-41.5 -126.5q-14 -43 -47 -138.5 t-50.5 -146.5t-37 -101.5t-33.5 -89.5q-106 289 -189 535q-12 37 -118 383q-25 78 -33 104l-8 25l-13 -2q-43 -10 -77 -10q-27 0 -68 8q-10 2 -23 4q-20 -86 -65 -228.5t-90 -273.5t-86 -244.5t-58 -160.5l-51 -133l-39 114q-49 143 -87 258t-75.5 231.5t-71.5 230.5 t-59 206q-76 -12 -143 -12q-29 0 -64.5 3t-74.5 7q-2 0 -21 2z" />
<glyph unicode="X" horiz-adv-x="1251" d="M31 0q61 12 96 12q27 0 82 -8l24 -4l41 68q74 129 123 209.5t82 125.5l105 148q18 -31 47 -82q45 -76 73.5 -128t79.5 -157l90 -184h7q100 12 151 12q39 0 117 -6q45 -4 61 -6q-43 61 -106.5 162.5t-147.5 238t-140 230.5t-81 137q119 172 168 243.5t95 136t87 118 t107 139.5q-16 -2 -33 -4q-47 -8 -65 -8q-41 0 -111 12q-20 -35 -78 -133q-59 -100 -80 -135q-4 -8 -96 -150l-65 -100q-84 135 -142.5 248.5t-130.5 269.5q-98 -12 -162 -12q-41 0 -84 4t-82 8l230 -361q49 -76 87 -141t103 -180l29 -51l-176 -248q-25 -33 -100 -141z" />
<glyph unicode="Y" horiz-adv-x="1214" d="M-27 1405q47 -76 136 -223q78 -129 139 -231.5t110 -186.5l121 -209q0 -88 -4 -264q0 -61 -3 -152.5t-5 -138.5l31 4q74 8 106 8q31 0 94 -8q25 -2 47 -4q0 10 -4 78q-6 164 -8 227.5t-2 167.5v76q0 20 27 65q39 66 96 170q106 190 162 279q0 2 18 29q4 6 43 68.5 t63.5 102.5t49 79.5t37.5 62.5q-33 -12 -86 -12t-119 12q-70 -152 -101.5 -220.5t-66.5 -137t-78 -146.5t-108 -188q-68 119 -117 210t-87 164.5t-71 141t-84 176.5q-72 -12 -168 -12q-33 0 -69.5 3t-98.5 9z" />
<glyph unicode="Z" horiz-adv-x="1251" d="M16 0q76 4 141.5 7t127.5 3q88 2 323 2q221 0 342 -3t213 -7q8 0 39 -2q-10 35 -10 82q0 31 8 68q2 12 2 16q-156 -8 -233 -14q-82 -6 -189.5 -10.5t-189.5 -4.5h-197q39 68 90.5 148t130.5 198l181 271q74 111 150.5 225.5t131.5 189.5l105 146l6 8q14 23 18 30t4 17 q0 8 -2 25l-2 10q-90 -6 -209.5 -9t-343.5 -3q-240 0 -351.5 2t-199.5 10q6 -39 7 -80q0 -18 -5 -57q-2 -14 -2 -23q276 23 725 23q-33 -55 -105.5 -170t-149 -234t-128 -195.5t-135.5 -203.5q-6 -10 -67.5 -93t-63.5 -87q-90 -121 -121.5 -165t-40.5 -54v-66z" />
<glyph unicode="[" horiz-adv-x="645" d="M156 1448q2 -12 5 -58.5t7 -120t6 -140t2 -105.5v-768q0 -86 -3 -196.5t-11 -288.5v-4q37 2 102.5 4t110.5 2q109 0 209 -6q-8 29 -9 49q0 14 9 43q-147 -4 -224 -4q-4 115 -7 207t-3 114v531q0 303 6 452l9 201q109 0 219 -6q-2 6 -2 8q-6 29 -7 43q0 23 9 43 q-35 -2 -87.5 -4t-97.5 -2q-102 0 -243 6z" />
<glyph unicode="\" horiz-adv-x="796" d="M49 1448l563 -1509h136l-564 1509h-135z" />
<glyph unicode="]" horiz-adv-x="645" d="M61 -141q6 -18 7 -43q0 -16 -7 -49q139 8 209 8q49 0 110.5 -3l102.5 -5q-2 35 -4 92q-6 76 -6 98q-4 197 -4 299v768q0 121 14 354l4 70q-41 0 -120 -2q-80 0 -121 -2q-86 0 -185 4q6 -20 7 -41q0 -12 -5 -35q0 -6 -2 -18q111 6 220 6l8 -201q6 -150 6 -452v-531 q0 -20 -1 -70.5t-5 -145.5t-4 -105q-76 0 -224 4z" />
<glyph unicode="^" horiz-adv-x="1366" d="M213 518h154l317 688l317 -688h154l-397 850h-148z" />
<glyph unicode="_" d="M0 -154v-102h1024v102h-1024z" />
<glyph unicode="`" horiz-adv-x="530" d="M-55 1432q0 -31 12 -48.5t31 -27.5l334 -207h104l-289 311l-2 4q-27 25 -48 38.5t-52 13.5q-29 0 -59.5 -21.5t-30.5 -62.5z" />
<glyph unicode="a" d="M74 225q0 -37 12 -78t43 -80.5t87 -65.5t140 -26q80 0 154 38t121 102q25 -63 56.5 -94t113.5 -31q37 0 78 12t96 33q-8 25 -8 37t8 37q-37 -16 -57 -17q-49 0 -60.5 45t-11.5 205q0 31 2 166q4 143 4 184q0 152 -100.5 229.5t-272.5 77.5q-80 0 -145.5 -22.5 t-179.5 -91.5q2 -18 2 -56q0 -35 -11 -100q20 4 33 4q10 0 31 -4q6 23 19.5 46.5t40 47t66.5 37.5t95 14q90 0 144.5 -53t54.5 -164q0 -25 -8 -41q-8 -14 -32 -23t-116 -34l-70 -18h-2q-90 -25 -142 -43.5t-95 -51t-66.5 -86t-23.5 -135.5zM305 276q0 55 16.5 89t53.5 57.5 t89 40t159 45.5v-213q0 -82 -50.5 -138.5t-132.5 -56.5q-61 0 -98 47.5t-37 128.5z" />
<glyph unicode="b" horiz-adv-x="1214" d="M127 1518q10 -162 14 -257.5t6 -173.5q4 -135 5 -348q0 -154 -1 -256t-4.5 -172.5t-5.5 -130t-8 -155.5l-2 -25h70q45 53 64.5 70.5t64.5 48.5q61 -84 138 -114t181 -30q109 0 197 44t148.5 120t91 173.5t30.5 201.5q0 123 -37 216t-99 152.5t-138 88t-156 28.5 q-98 0 -175 -45t-138 -129v52q2 129 3 233t2 157.5t4 121t7 129.5h-4q-33 -6 -58.5 -9.5t-62.5 -3.5q-76 0 -137 13zM369 473q0 72 10 140.5t36.5 128t76 96t124.5 36.5q80 0 130.5 -37.5t75 -96t32.5 -120t8 -126.5q0 -74 -10 -146t-38 -135t-78 -103t-124 -40 q-82 0 -132 42t-73.5 105.5t-30.5 127t-7 128.5z" />
<glyph unicode="c" horiz-adv-x="985" d="M94 475q0 -94 33 -183t97.5 -161t160.5 -114t219 -42q70 0 147.5 16.5t153.5 57.5l4 23q6 43 13.5 70.5t23.5 50.5l-33 18l-8 -6q-68 -61 -116 -88t-125 -27q-86 0 -145.5 36t-94.5 95.5t-50.5 134t-15.5 154.5q0 88 13.5 155.5t50.5 120.5q33 49 92 84t127 35 q61 0 104 -22.5t67 -53t33 -55t13 -39.5h39q6 68 19.5 118t27.5 75q-90 39 -157.5 55t-155.5 16q-133 0 -235.5 -43t-169 -116.5t-99.5 -166.5t-33 -198z" />
<glyph unicode="d" horiz-adv-x="1214" d="M92 471q0 -102 32 -193.5t92 -161t143 -107.5t182 -38q109 0 186.5 51.5t124.5 118.5l-6 -141q6 0 26 4q55 8 93 8q33 0 61.5 -3t53.5 -9q-6 43 -9.5 157.5t-6.5 259t-4 241t-1 126.5q0 350 21 734q-51 -12 -115 -13q-78 0 -146 13q14 -117 19.5 -274t5.5 -386 q-68 68 -129.5 101.5t-163.5 33.5q-199 0 -329 -137t-130 -385zM348 512q0 66 11.5 130.5t39 119.5t77.5 89t122 34q70 0 119 -32t76.5 -87t39 -124t11.5 -148q0 -197 -68.5 -298.5t-185.5 -101.5q-74 0 -123 40t-74.5 103.5t-35 134t-9.5 140.5z" />
<glyph unicode="e" horiz-adv-x="1099" d="M90 502q0 -41 3 -82t16.5 -95.5t42 -110.5t75.5 -103q39 -41 90.5 -68t104.5 -42t97 -20.5t79 -5.5q68 0 129 13.5t106.5 31t73 35t35.5 25.5l19 88q4 14 16 43l-23 14q-49 -57 -134 -93t-156 -36q-113 0 -181.5 45t-99.5 110.5t-38 122t-7 109.5h672q0 119 -16.5 198 t-43.5 130q-35 66 -88 104.5t-108.5 56t-98.5 21.5t-90 4q-92 0 -177 -30.5t-152.5 -92t-106.5 -155.5t-39 -217zM342 584v2q2 49 9 98t29.5 103.5t69 91t119.5 36.5q72 0 115 -34.5t62.5 -87t23.5 -101.5t4 -108h-432z" />
<glyph unicode="f" horiz-adv-x="645" d="M43 864q12 2 20 2q37 4 68 4h66q2 -29 3 -124t1 -179q0 -53 -2 -174q-2 -96 -4 -186q-2 -88 -4.5 -123t-10.5 -84q4 0 23 2q72 10 110 10q29 0 95 -8l34 -4q-6 59 -10 171t-6 253t-3 220t-1 114v112q121 0 154.5 -1t58.5 -5q-8 29 -8 56q0 23 8 55l-76 -6q-37 -2 -141 -2 q-23 74 -40.5 139t-17.5 102q0 45 14.5 72t37 40t43 16t43.5 3q33 0 74.5 -8t76.5 -33l15 13q-2 31 -2 108q0 25 4 53.5t12 49.5q-31 6 -41 7t-21 1q-70 0 -126 -25.5t-96 -62.5t-63.5 -69t-39.5 -64l-2 -2q-45 -78 -59.5 -140.5t-28.5 -181.5l-2 -18h-41q-41 2 -115 8 q2 -10 4 -27q2 -23 2 -28q0 -27 -6 -56z" />
<glyph unicode="g" horiz-adv-x="1062" d="M55 -260q0 -135 127 -208t320 -73q100 0 192 31t164 88t113 137t41 176q0 49 -15.5 95.5t-58.5 89.5q-25 25 -63.5 43t-120.5 28q-23 2 -63 3.5t-161 3.5q-82 2 -90 2q-55 4 -89 22.5t-34 77.5q0 41 21.5 60.5t54.5 25.5q12 2 119 6q49 2 61 2q96 8 162 38t104 73t54 91 t16 97q0 55 -19.5 110.5t-78.5 112.5l76 -4q12 0 48 -3t75 -7q-6 25 -6 62q0 23 6 53q-23 -6 -70 -8t-92 -2q-66 0 -96.5 3t-112.5 15h-6q-92 14 -148 14q-174 0 -285.5 -88t-111.5 -248q0 -90 47 -163.5t180 -122.5q-63 -20 -101 -48t-55.5 -57.5t-22.5 -55.5t-5 -54 q0 -49 38 -94.5t105 -67.5l-49 -14q-20 -6 -45.5 -18.5t-54.5 -39t-49.5 -73t-20.5 -111.5zM227 -215q0 51 21.5 87t42.5 52q37 29 98.5 41t128.5 12q59 0 109.5 -5t95.5 -23.5t72.5 -55t27.5 -96.5q0 -61 -27.5 -108t-73.5 -77t-102.5 -44t-113.5 -14q-125 0 -202 57 t-77 174zM326 653q0 47 4 87t20.5 81t53 67.5t98.5 26.5q57 0 92 -27.5t52.5 -67.5t22.5 -76.5t5 -67.5q0 -129 -48 -194.5t-124 -65.5q-53 0 -88 19.5t-54.5 52t-26.5 74.5t-7 91z" />
<glyph unicode="h" horiz-adv-x="1175" d="M135 0q4 0 23 2q37 6 59.5 8t42.5 2q47 0 129 -12q-6 98 -7 131t-1 74q-2 61 -2 268q0 100 6 149.5t18 90.5q23 70 80.5 101.5t122.5 31.5q66 0 113 -33t63 -94q10 -35 12.5 -89.5t2.5 -201.5q0 -104 -6.5 -220t-16.5 -208q10 0 39 4q68 8 98 8q66 0 127 -12 q-4 63 -8 184t-4 201q0 29 2 127q2 68 2 94q0 90 -8 145.5t-39 104.5q-45 72 -121 104.5t-164 32.5q-94 0 -175 -40t-144 -128q0 225 2 322q2 70 5 152.5t7 152.5l4 66q-57 -12 -123 -13q-78 0 -139 13q0 -12 4 -54q6 -127 8.5 -172t2.5 -90l2 -399q0 -348 -2 -461 q-2 -76 -5.5 -154.5t-9.5 -187.5z" />
<glyph unicode="i" horiz-adv-x="530" d="M121 1313q0 -57 43 -99.5t98 -42.5q57 0 100.5 42t43.5 100q0 57 -43.5 100t-100.5 43t-99 -43t-42 -100zM131 983q10 -100 15.5 -244.5t5.5 -263.5q0 -51 -2.5 -114.5t-4.5 -139.5l-10 -221h6q86 12 133 12q43 0 111 -10l8 -2q0 14 -4 82q-2 31 -3 54.5t-1 31.5 q-2 74 -4 193.5t-2 179.5q0 29 1 65.5t3 95t8 189.5l4 92q-33 -6 -60.5 -9t-66.5 -3q-37 0 -63.5 3t-65.5 9h-8z" />
<glyph unicode="j" horiz-adv-x="530" d="M-41 -461l23 -78q63 12 120.5 27.5t119 47.5t107.5 87t60 135q6 41 11.5 134.5t5.5 154.5q0 76 -3 232q-2 156 -2 231q0 154 4.5 249t10.5 206l2 18q-74 -12 -133 -12q-72 0 -133 12q2 -18 4 -61q10 -186 10 -273q0 -92 2 -295q2 -297 2 -407q0 -127 -13.5 -204t-39 -116 t-60 -56t-98.5 -32zM141 1313q0 -57 44.5 -99.5t99.5 -42.5t98 42t43 100q0 57 -42 100t-99 43t-100.5 -43t-43.5 -100z" />
<glyph unicode="k" horiz-adv-x="1099" d="M139 1518q8 -72 12.5 -172.5t6.5 -204.5q2 -133 2 -318q0 -25 -2 -186q-2 -172 -2 -205q0 -147 -4.5 -245.5t-10.5 -186.5h6q86 12 129 12q29 0 65 -4t56 -8q-2 31 -4 88t-4 107q-2 96 -2 202v41q0 47 14 47q12 0 24.5 -12t49.5 -67l125 -185q10 -14 72 -117 q23 -37 39 -64.5t24 -39.5q98 12 142 12q25 0 60.5 -2t94.5 -8l35 -2l2 10l-23.5 23.5t-25.5 29.5q-29 37 -102 132q-10 14 -37 51t-52 69q-45 63 -49 70l-159 221q147 131 236 209t185 156l-4 12q-39 -12 -110 -12q-25 0 -65 4t-66 8q-25 -35 -77 -97.5t-105.5 -124 t-105.5 -117.5t-81 -81q-16 -14 -31 -14q-10 0 -10 26v74q-2 70 -2 72q0 129 2 293q2 92 4 204.5t6 167.5l9 132q-57 -12 -130 -13q-94 4 -137 13z" />
<glyph unicode="l" horiz-adv-x="530" d="M129 1518q6 -80 10 -138.5t7.5 -140.5t5.5 -182.5t2 -241.5q0 -258 -2 -442q-2 -125 -7.5 -226.5t-11.5 -146.5h6q55 8 83 10t52 2q29 0 84 -8q23 -2 41 -4q-10 104 -14 282.5t-4 481.5q0 240 2 373q2 104 6 202.5t12 178.5l-20 -5q-29 -4 -51.5 -6t-59.5 -2 q-47 0 -72.5 3t-66.5 10h-2z" />
<glyph unicode="m" horiz-adv-x="1781" d="M137 983q8 -109 12.5 -201t4.5 -241q0 -205 -2 -291q-2 -53 -6.5 -130t-6.5 -120l21 2q35 4 61.5 7t52.5 3q27 0 78 -8q18 -2 39 -4q-10 143 -10 440q0 98 5 172t24 115q25 53 70.5 86t103.5 33q78 0 121 -34t57 -93q10 -37 12 -110.5t2 -211.5q0 -96 -2 -174 q-2 -61 -5 -120.5t-9 -102.5q2 0 49 6q55 6 84 6t84 -8q23 -2 41 -4q-2 47 -4 72q-10 203 -10 307q0 127 4 200.5t24.5 135t65.5 96.5t123 35q55 0 91 -22.5t53 -56.5t23.5 -65.5t8.5 -66.5q2 -37 2 -273q0 -80 -5 -180t-12 -182q2 0 33 4q29 4 53.5 6t40.5 2q18 0 64 -6 q45 -4 65 -6q-4 27 -6 77t-4 120q-2 100 -2 206q0 49 4 152q2 100 2 150q0 45 -16.5 94t-54 93t-98 71.5t-142.5 27.5q-113 0 -195 -52t-139 -138v2q-16 35 -34.5 63.5t-51.5 58t-86 48t-129 18.5q-102 0 -179 -48t-132 -142v20q2 70 4 98.5t8 63.5h-4q-29 -6 -50.5 -9 t-53.5 -3q-51 0 -123 10q-8 0 -19 2z" />
<glyph unicode="n" horiz-adv-x="1175" d="M131 0q86 12 129 12q8 0 39 -3t68 -7q18 -2 22 -2q-8 106 -11 215t-3 248q0 74 8 152.5t27 117.5q25 51 75 85t107 34q70 0 121 -33t69 -102q10 -35 12.5 -121t2.5 -209q0 -84 -6.5 -201.5t-18.5 -185.5q8 0 33 4q70 8 100 8q31 0 88 -6q29 -4 45 -6q-6 37 -10 107.5 t-4 144.5q0 43 2 133t2 113q4 133 4 149q0 166 -88 256t-254 90q-111 0 -179.5 -43t-137.5 -137q0 80 1 102.5t9 67.5l-10 -2q-31 -6 -50.5 -8t-52.5 -2q-74 0 -135 12q8 -80 10 -105.5t5 -72.5q2 -72 2 -258q0 -180 -5 -262q-2 -57 -6 -126t-10 -159z" />
<glyph unicode="o" horiz-adv-x="1214" d="M92 485q0 -236 140.5 -373t373.5 -137q238 0 376 136.5t138 373.5q0 248 -137 380t-377 132q-233 0 -373.5 -138t-140.5 -374zM348 487q0 76 10.5 148t38 136.5t78.5 104t131 39.5t131 -39.5t79 -103t38 -135.5t10 -150t-10 -149.5t-38 -136t-79 -104.5t-131 -40t-131 40 t-78.5 104.5t-38 136t-10.5 149.5z" />
<glyph unicode="p" horiz-adv-x="1214" d="M131 -532q39 6 65.5 9t61.5 3q49 0 74.5 -3t60.5 -9q-12 133 -17 282.5t-5 372.5q63 -63 124.5 -98t166.5 -35q119 0 207.5 45t144 119.5t82 165t26.5 182.5q0 96 -29.5 188t-87 165t-139.5 115t-184 42q-113 0 -191.5 -50.5t-128.5 -121.5l7 143q-6 0 -25 -4 q-53 -8 -86 -8q-31 0 -88 8q-27 4 -37 4q6 -74 11.5 -169t7.5 -202.5t3 -195.5t1 -183q0 -59 -1 -144t-4.5 -197.5t-7.5 -224t-12 -199.5zM371 492q0 66 11 134t39 127.5t77 96.5t120 37q82 0 133.5 -44t76 -108.5t31.5 -129.5t7 -124q0 -63 -11 -129.5t-37.5 -124 t-74 -94.5t-116.5 -37q-76 0 -127 35t-79 92.5t-39 126t-11 142.5z" />
<glyph unicode="q" horiz-adv-x="1214" d="M88 506q0 -104 28.5 -197.5t87 -165t145.5 -112.5t202 -41q88 0 152.5 30.5t136.5 102.5q0 -68 -1 -164t-4.5 -182t-8.5 -172t-11 -137l12 2q37 6 60.5 8t62.5 2q82 0 129 -12q-6 63 -11 159.5t-7 212t-3 209.5t-1 187q0 250 3 414.5t15 332.5q-74 -12 -121 -12 q-33 0 -90 8q-20 4 -22 4l6 -143q-47 68 -124 120t-192 52q-94 0 -176 -37t-142 -106.5t-93 -162t-33 -200.5zM344 469q0 76 9 145.5t35 132t75 101.5t127 39q123 0 190.5 -111.5t67.5 -286.5q0 -66 -10.5 -131t-39 -125.5t-81.5 -98.5t-135 -38q-68 0 -115 35t-73.5 91.5 t-38 121t-11.5 125.5z" />
<glyph unicode="r" horiz-adv-x="757" d="M139 983q2 -23 2 -43q4 -82 6.5 -114.5t4.5 -69.5q2 -92 2 -228v-180t-4 -147l-9 -201l45 4q70 8 97 8q29 0 88 -8q20 -4 30 -4q-8 92 -13 220t-5 237q0 96 6 136t19 66q20 45 69 78t113 33q27 0 63.5 -5t57.5 -24l14 11q-10 41 -10 88q0 39 4 84t14 63q-25 6 -53 6 q-55 0 -102.5 -20.5t-82 -52t-58 -63.5t-54.5 -83l-4 -6q0 78 2 110.5t10 104.5q-49 -12 -117 -12q-37 0 -67.5 3t-67.5 9z" />
<glyph unicode="s" horiz-adv-x="833" d="M70 51q98 -43 160.5 -61.5t142.5 -18.5q102 0 179 33t123 85t67.5 110.5t21.5 109.5q0 70 -23.5 119t-61.5 80t-81 49t-106 39l-5 2l-4 2q-129 43 -174 71.5t-45 90.5q0 63 46 99t120 36q82 0 122 -37t75 -106h32q4 45 14.5 87t37.5 95q-66 27 -130.5 44t-144.5 17 q-166 0 -261 -88t-95 -227q0 -63 17.5 -109.5t42 -75t49 -45t49.5 -28.5l4 -2q10 -4 90 -33q45 -16 49 -18l12 -4q86 -33 125 -62t39 -84q0 -59 -41 -102t-113 -43q-66 0 -110.5 16.5t-73.5 41t-42 46t-23 47.5l-2 4h-37q-2 -6 -4 -28q-4 -43 -11 -66q-6 -25 -24 -71z" />
<glyph unicode="t" horiz-adv-x="681" d="M43 864q4 0 16 2q49 4 80 4h62q0 -61 -2 -166.5t-6 -220.5q-2 -119 -3.5 -161.5t-1.5 -63.5q0 -72 18.5 -132t67.5 -99q33 -27 85.5 -40.5t99.5 -13.5q49 0 117.5 18.5t113.5 41.5v4q-8 25 -8 43q0 14 6 41q2 4 2 8q-61 -43 -123 -43q-53 0 -81.5 18.5t-43 62.5 t-18.5 113.5t-4 196.5q0 31 4 195q2 145 2 198q90 0 125 -1t98 -7q-6 31 -6 62q0 25 6 51l-76 -6q-37 -2 -141 -2l2 71q0 61 2 129t3 100.5t3 46t4 23.5l-14 6q-33 -31 -94.5 -69.5t-138.5 -73.5q4 -94 4 -233h-90q-20 0 -58 6q-8 2 -12 2q6 -37 6 -66q0 -16 -4 -39 q-2 -2 -2 -6z" />
<glyph unicode="u" horiz-adv-x="1175" d="M137 983q8 -68 10.5 -107.5t2.5 -107.5q0 -72 -5 -215q-4 -145 -4 -217q0 -39 8.5 -94.5t32.5 -102.5q43 -78 120 -120t167 -42q66 0 118 17.5t92 46.5t66.5 57.5t55.5 67.5q0 -68 -1 -88.5t-7 -77.5q14 2 26 4q59 8 90 8q20 0 64 -6q37 -4 65 -6v6q-6 55 -8 82t-4 76 t-3 112.5t-1 157.5q0 246 20 549q-47 -6 -78.5 -9t-60.5 -3q-45 0 -119 12q10 -80 12.5 -202t2.5 -283q0 -70 -8.5 -142.5t-26.5 -109.5q-20 -41 -65.5 -79t-127.5 -38q-63 0 -113 36t-67 97q-4 14 -7 50t-5 83q-2 68 -2 142q0 37 1 101t4 125.5t8 124t11 95.5 q-68 -12 -133 -12q-59 0 -131 12z" />
<glyph unicode="v" d="M31 983q14 -37 29.5 -76t35 -88t109.5 -272q102 -252 112 -281q33 -84 86 -254l7 -22q70 12 104 12q33 0 80 -10l6 -2q25 94 113 317l6 19q88 223 162 391l118 266q-49 -12 -98 -12q-41 0 -84 12q-2 -16 -9 -44t-14.5 -51.5t-15.5 -51t-12 -39.5q-2 -8 -14.5 -45 t-33 -98.5t-46.5 -145.5q0 -2 -28 -79l-38 -104.5t-12 -33.5l-23 -60q-72 188 -126 340t-111 334l-25 78q-63 -12 -137 -12q-51 0 -141 12z" />
<glyph unicode="w" horiz-adv-x="1630" d="M31 983q94 -223 169.5 -423t108.5 -306l80 -264q53 12 105 12q47 0 79 -12l11 39q27 104 49 168l123 348q8 27 10 26q20 61 28.5 85t16.5 40l23 -69q2 -4 20 -60.5t29 -85.5l20 -59q31 -86 86 -272l15 -46l34 -114q66 12 105 12q43 0 82 -12q72 236 194 532l86 211 q49 117 101 250q-53 -12 -86 -12q-41 0 -90 12q-53 -193 -107.5 -367t-97.5 -288l-31 -82q-102 270 -205 622l-33 115q-49 -12 -98 -12q-41 0 -82 12q-12 -43 -38.5 -131t-51 -169t-52.5 -163t-46 -135l-51 -143q-4 16 -13 39q-76 233 -95 295.5t-33.5 108.5t-30.5 101 l-58 197q-61 -12 -135 -12q-68 0 -141 12z" />
<glyph unicode="x" d="M37 0q18 2 37 4q49 8 73 8q33 0 80 -10l6 -2q41 70 72 119t55.5 88t53 80t57.5 78q27 -41 50.5 -77t67.5 -106.5t67.5 -108.5t43.5 -73q27 2 50 4q66 8 92 8q27 0 86 -6q37 -4 59 -6q-37 53 -61 90q-31 41 -77 108.5t-101.5 146.5t-89 129t-52.5 81q98 131 234 287 l121 141q-10 -2 -35 -4q-47 -8 -72 -8q-43 0 -84 12q-59 -106 -109.5 -183t-111.5 -159l-127 197q-18 29 -53 92q-23 41 -31 53q-6 0 -19 -2q-70 -10 -116 -10q-68 0 -154 12q4 -6 29 -39q18 -29 28 -43q14 -18 29 -38.5t45.5 -64.5t40.5 -58.5t33 -47.5l22 -30 q47 -70 82 -123.5t52 -83.5q-27 -37 -72 -93.5t-113 -136.5q-49 -57 -100 -117.5t-88 -107.5z" />
<glyph unicode="y" d="M16 983l244 -543l39 -88q63 -145 88 -203.5t37 -88t19.5 -51t15.5 -46.5q-6 -12 -46 -91t-69 -135t-64.5 -123t-50.5 -89l-32 -53q53 12 94 12q39 0 92 -12q23 94 104.5 305t188 458.5t203 458.5t135.5 289q-57 -12 -92 -12q-41 0 -91 12q-16 -49 -35.5 -112.5 t-39.5 -129.5q0 -2 -23.5 -70.5t-41 -117.5t-40 -108.5t-39.5 -98.5l-37 -86l-96 234q-12 31 -38.5 100.5t-54.5 145t-52.5 144t-32.5 99.5q-94 -12 -141 -12q-29 0 -61.5 3t-82.5 9z" />
<glyph unicode="z" horiz-adv-x="985" d="M39 0q59 6 180 9t260 3q88 0 252 -6q127 -6 189 -6q-6 20 -7 63q0 37 11 76q-74 -6 -212.5 -10t-265.5 -4h-71q29 53 79 131t113.5 171t139 199.5t151.5 204.5l62 80v70q-51 -8 -138.5 -10t-273.5 -2q-170 0 -259 2t-153 10q6 -45 6 -80t-6 -65q35 4 87.5 7t151.5 7 t138 5t49 1h80l-61 -90l-37 -55q-33 -47 -39 -56.5t-57.5 -84t-57.5 -83.5q-14 -20 -52 -73.5t-85 -120t-93 -127t-81 -103.5v-63z" />
<glyph unicode="{" horiz-adv-x="819" d="M61 563q150 -2 210.5 -66.5t60.5 -215.5v-103q0 -104 11 -175t52 -129t130 -95t235 -41v88q-90 4 -143.5 33.5t-77 75t-28.5 91.5t-5 115v95q0 82 -6 134t-32 103t-83 86t-156 47q98 12 155.5 48t83.5 88.5t32 104.5t6 130v94q0 70 5 117t28.5 91t77 72.5t143.5 34.5v89 q-152 -4 -242 -43t-129 -100.5t-48 -129t-9 -168.5v-102q0 -139 -63.5 -209t-207.5 -74v-86z" />
<glyph unicode="|" horiz-adv-x="454" d="M154 -512h147v2048h-147v-2048z" />
<glyph unicode="}" horiz-adv-x="819" d="M59 -174v-88q152 4 242 43t129 100.5t48 129t9 167.5v103q0 139 64.5 209.5t206.5 72.5v86q-150 4 -210.5 67.5t-60.5 215.5v102q0 104 -11 175t-52 129.5t-129 95t-236 41.5v-89q90 -4 143.5 -33.5t77 -74.5t28.5 -91t5 -116v-94q0 -82 6.5 -134t32 -103.5t83 -86.5 t155.5 -47q-98 -12 -155.5 -48t-83 -88t-32 -104.5t-6.5 -129.5v-95q0 -70 -5 -117t-28.5 -91t-76.5 -72.5t-144 -34.5z" />
<glyph unicode="~" horiz-adv-x="1366" d="M119 354h102q8 86 55.5 128t104.5 42q53 0 121.5 -19.5t169.5 -58.5q102 -39 176 -59t133 -20q119 0 188.5 89t77.5 214h-102q-10 -76 -50 -123t-110 -47q-51 0 -115.5 19.5t-173.5 60.5h-2q-100 37 -175 57t-134 20q-119 0 -188.5 -89t-77.5 -214z" />
<glyph unicode="&#xa1;" horiz-adv-x="569" d="M135 850q0 -59 42 -102t104 -43q59 0 102 43t43 102t-43 102t-102 43q-61 0 -103.5 -43t-42.5 -102zM147 -270q0 -51 32 -99.5t104 -48.5q49 0 93 37t44 121q0 20 -5 81.5t-12 104.5l-96 672h-41l-98 -653q-14 -94 -17.5 -133t-3.5 -82z" />
<glyph unicode="&#xa2;" horiz-adv-x="1062" d="M94 475q0 -152 83 -282t235 -185l-80 -260l90 -22l80 258q43 -8 102 -9q70 0 147.5 16.5t153.5 57.5q12 78 18.5 99.5t22.5 44.5q-8 6 -33 18l-8 -6q-68 -61 -116 -88t-125 -27q-61 0 -123 27l231 749q39 -29 58.5 -65.5t27.5 -63.5v-2h39q6 68 19.5 118t27.5 75l-14 6 q-82 33 -125 43l69 225l-92 23l-69 -230q-49 4 -82 4q-133 0 -235.5 -43t-169 -116.5t-99.5 -166.5t-33 -198zM358 510q0 74 14.5 143.5t46.5 127t87 91t135 33.5q14 0 43 -4l-223 -729q-57 57 -80 147.5t-23 190.5z" />
<glyph unicode="&#xa3;" horiz-adv-x="1062" d="M63 0q88 8 201 11t301 3q279 0 455 -14q0 14 -4 45q-6 53 -6 72q0 27 6 73q4 27 4 37q-84 -6 -124 -8t-91 -4q-63 -2 -268 -2h-224q51 37 89 79t65 114q25 63 33 117.5t12 127.5v15q86 0 142.5 -1t70.5 -3l94 -9q-8 47 -8 64q0 14 4 41l4 20q-41 -4 -108.5 -7t-126.5 -3 h-72l-2 174q0 104 4 152.5t16 79.5q20 51 67.5 93t121.5 42q90 0 134 -41t95 -135h19q6 43 11 72.5t17 94.5q8 43 11 50q-59 20 -137 36.5t-140 16.5q-115 0 -205 -39t-147 -100q-63 -68 -92 -163t-29 -243q0 -27 2 -72q2 -12 2 -18q-61 0 -95 2t-87 8h-8q0 -4 2 -12 q6 -31 6 -45q0 -20 -8 -62q102 6 202 7q6 -43 10.5 -97.5t4.5 -130.5q0 -90 -22.5 -145t-56.5 -79t-68 -30t-77 -6q6 -27 8.5 -45t2.5 -45q0 -43 -11 -88z" />
<glyph unicode="&#xa4;" horiz-adv-x="1062" d="M25 262l94 -94l137 137q125 -94 279 -94q145 0 274 94l137 -137l94 94l-137 137q94 123 94 277q0 158 -94 276l137 138l-94 94l-137 -137q-72 49 -136.5 71.5t-140.5 22.5q-80 0 -144 -22.5t-132 -71.5l-137 137l-94 -94l137 -138q-94 -119 -94 -276q0 -78 22.5 -142.5 t71.5 -134.5zM236 676q0 127 86 212t210 85q125 0 211 -85t86 -212q0 -125 -86 -211t-211 -86t-210.5 86t-85.5 211z" />
<glyph unicode="&#xa5;" horiz-adv-x="1062" d="M-61 1368q158 -231 413 -686q-88 0 -153.5 3t-116.5 7q0 -4 2 -12q6 -31 6 -45q0 -18 -6 -55q-2 -10 -2 -11q80 6 151.5 8.5t161.5 2.5l21 -45v-105q-111 0 -193 3t-141 7q0 -4 2 -12q6 -31 6 -45q0 -18 -6 -55q-2 -10 -2 -11q82 6 157.5 8.5t176.5 2.5q0 -195 -10 -328 q8 0 30 4q66 8 96 8q29 0 84 -6q29 -4 43 -6q-4 98 -7 175t-3 153q111 0 187.5 -2t146.5 -9q-8 43 -8 62q0 14 4 41l4 20q-160 -10 -334 -10v98q0 20 21 52q188 0 313 -11q-8 43 -8 62q0 14 4 41l4 20l-61 -2q-139 -8 -213 -8q55 98 101 176t104.5 175t111.5 182t98 153 q-39 -12 -90 -12q-20 0 -48 4t-52 8l-31 -68q-45 -98 -76.5 -165.5t-65.5 -135t-75 -142.5t-98 -173q-59 104 -107.5 192.5t-88.5 168t-66.5 135t-87.5 188.5q-25 -4 -65 -8t-81 -4q-70 0 -153 12z" />
<glyph unicode="&#xa6;" horiz-adv-x="454" d="M154 -358h147v716h-147v-716zM154 666h147v716h-147v-716z" />
<glyph unicode="&#xa7;" horiz-adv-x="1062" d="M102 584q0 -18 2 -41t13.5 -55.5t35 -66.5t60.5 -61q10 -8 33.5 -21t51.5 -28.5t53.5 -29t45.5 -21.5l17 -8q172 -72 237.5 -120t65.5 -130t-58.5 -139.5t-164.5 -57.5q-63 0 -113.5 21.5t-86.5 55.5t-56.5 64.5t-38.5 67.5h-19l-33 -194q156 -104 324 -105 q70 0 134.5 17.5t111.5 40.5q80 41 135 122.5t55 180.5q0 76 -29.5 123t-76.5 90q72 66 111.5 128t39.5 161q0 66 -24.5 113.5t-65.5 81.5t-88 58.5t-125 57.5l-6 4q-166 72 -226.5 116t-60.5 126q0 78 58.5 119.5t132.5 41.5q57 0 98 -14t67.5 -37.5t43 -49.5t37.5 -67h14 q18 57 29.5 83t37.5 73q-35 33 -79.5 53.5t-88.5 30.5t-81 13t-68 3q-168 0 -271.5 -92t-103.5 -235q0 -68 20.5 -108t61.5 -85l2 -2h-2q-29 -23 -52.5 -43t-49 -53t-43 -79t-17.5 -103zM236 690q0 41 20 72t57 63q41 -29 68 -45t52.5 -29.5t52 -25.5t112.5 -51 q127 -57 173 -95.5t46 -101.5q0 -45 -18.5 -76.5t-50.5 -64.5q-47 31 -118 62.5t-173 74.5q-10 4 -23 10h-2q-96 41 -146 83t-50 124z" />
<glyph unicode="&#xa8;" horiz-adv-x="530" d="M-66 1290q0 -49 35 -85t86 -36t86 37t35 84q0 49 -35 85t-86 36t-86 -35t-35 -86zM354 1290q0 -49 35 -85t86 -36t86 37t35 84q0 49 -35 85t-86 36t-86 -35t-35 -86z" />
<glyph unicode="&#xa9;" horiz-adv-x="1679" d="M100 692q0 -147 57.5 -281.5t160 -235.5t237.5 -158.5t285 -57.5t285 57.5t237 158.5t159.5 235.5t57.5 281.5q0 152 -57.5 285t-159.5 234.5t-237 157.5t-285 56t-285 -56t-237.5 -157.5t-160 -234.5t-57.5 -285zM203 692q0 131 49 249t138 206t205 137t245 49 t245.5 -49t204.5 -138t137.5 -206t49.5 -248q0 -133 -48.5 -249.5t-135.5 -204.5t-203.5 -137.5t-249.5 -49.5q-129 0 -246 50.5t-205 139.5t-137 205.5t-49 245.5zM406 688q0 -201 124.5 -313.5t313.5 -112.5q168 0 311 78l12 121l-12 8q-53 -61 -117.5 -99t-167.5 -38 q-74 0 -130 30.5t-93 83t-55.5 118t-18.5 134.5q0 176 81 270.5t235 94.5q80 0 141.5 -24.5t91.5 -88.5h13l36 121q-74 33 -142 47.5t-144 14.5q-236 0 -357.5 -125t-121.5 -320z" />
<glyph unicode="&#xaa;" horiz-adv-x="665" d="M33 924q0 -76 54 -115t136 -39q53 0 101.5 21.5t74.5 54.5q18 -39 43 -53.5t70 -14.5q41 0 117 27v55q-2 0 -11 -4q-16 -6 -26 -6q-31 0 -38 25.5t-7 113.5q0 18 2 101q2 86 2 110q0 92 -66.5 138t-177.5 46q-57 0 -115.5 -18t-103.5 -51v-41q0 -31 -8 -57h51q8 31 41 56 t98 25q57 0 91 -29.5t34 -88.5q0 -20 -17.5 -29.5t-82.5 -24.5l-45 -10q-115 -29 -166 -64.5t-51 -127.5zM197 950q0 55 36.5 78t157.5 53v-118q0 -45 -30.5 -76t-81.5 -31q-37 0 -59.5 25.5t-22.5 68.5z" />
<glyph unicode="&#xab;" horiz-adv-x="909" d="M100 502q59 -74 116.5 -157t133.5 -204l12 -18q35 31 52.5 43t56.5 39l-68 90q-10 12 -94 127q-10 16 -57 80q25 41 49.5 81t58 91t62.5 90t49 61q-37 20 -55.5 33.5t-53.5 42.5l-6 4q-35 -66 -155 -252q-8 -10 -41 -61zM438 502q39 -51 51.5 -67.5t94.5 -135.5 q12 -18 28.5 -42t30.5 -42l55 -92l15 10q39 33 54 44t40 28l-66 90q-25 35 -75 104q-51 68 -76 103q18 31 47 78t59.5 94t59 87t51.5 64q-41 25 -59.5 38.5t-53.5 41.5q-45 -76 -57 -96.5t-24.5 -40.5t-36 -56t-78.5 -120z" />
<glyph unicode="&#xac;" horiz-adv-x="1366" d="M152 719h929v-410h133v543h-1062v-133z" />
<glyph unicode="&#xad;" horiz-adv-x="833" d="M137 403q47 2 130 4.5t134 2.5t156 -4q98 -2 139 -3q-2 12 -4 37q-6 53 -6 70q0 25 8 84q2 16 2 22q-98 -2 -165.5 -4t-139.5 -2q-170 0 -254 6q6 -29 8 -48t2 -46q0 -33 -8 -106z" />
<glyph unicode="&#xae;" d="M68 985q0 -90 33.5 -170t94 -141.5t142.5 -95t174 -33.5t174 33.5t142.5 95t94 141.5t33.5 170q0 92 -33.5 172t-94 140.5t-142.5 94t-174 33.5t-174 -33.5t-142.5 -94t-94 -140.5t-33.5 -172zM145 985q0 76 28 143.5t79 117.5t117.5 78t142.5 28t143.5 -28t117.5 -78 t78 -117.5t28 -143.5q0 -74 -28 -141.5t-78 -117.5t-117.5 -79t-143.5 -29t-143.5 28t-116.5 78t-78 117.5t-29 143.5zM313 745l11 3q35 2 49 2q20 0 55 -5h4q-4 156 -4 230h18q45 -51 123 -156q45 -61 56 -74l16 3q29 2 49 2q25 0 62 -5h8q-49 57 -146 177q-29 35 -55 67 q63 8 104.5 42t41.5 91q0 61 -50.5 88t-117.5 27q-10 0 -68 -2q-57 -2 -68 -2q-49 0 -86 4q4 -72 4 -104.5v-98.5q0 -74 -1 -138.5t-5 -150.5zM428 1022v166q8 2 26.5 3t28.5 1q51 0 80 -17.5t29 -62.5q0 -35 -27.5 -63.5t-83.5 -28.5q-37 0 -53 2z" />
<glyph unicode="&#xaf;" horiz-adv-x="530" d="M-27 1229h586v133h-586v-133z" />
<glyph unicode="&#xb0;" horiz-adv-x="819" d="M98 1071q0 -131 89 -221t223 -90q133 0 222 91t89 220q0 133 -89 222t-222 89t-222.5 -88t-89.5 -223zM225 1071q0 80 53.5 134.5t131.5 54.5q80 0 132 -53.5t52 -135.5q0 -80 -52.5 -134t-131.5 -54q-80 0 -132.5 53t-52.5 135z" />
<glyph unicode="&#xb1;" horiz-adv-x="1366" d="M152 0h1062v133h-1062v-133zM152 623h464v-402h134v402h464v133h-464v401h-134v-401h-464v-133z" />
<glyph unicode="&#xb2;" horiz-adv-x="696" d="M41 553q90 4 150.5 6t146.5 2q59 0 104 -1t121 -5l70 -2q-4 33 -4 63q0 51 6 78q-45 -6 -127 -7t-266 -1q10 8 39.5 33.5t59.5 53.5t69 63.5t53 50.5q80 80 109.5 138t29.5 134q0 61 -24.5 105.5t-65.5 70t-90 36.5t-100 11q-109 0 -174.5 -39.5t-104.5 -121.5l82 -78 l16 12q8 72 44 114t104 42q72 0 100.5 -51.5t28.5 -124.5q0 -80 -32 -148.5t-83 -130.5q-43 -53 -118.5 -125t-143.5 -129v-49z" />
<glyph unicode="&#xb3;" horiz-adv-x="696" d="M45 616q55 -45 118.5 -62t129.5 -17q63 0 123.5 15t112 47t82 79t30.5 108q0 98 -63.5 146.5t-161.5 52.5q-14 0 -15 4q0 2 7 4h4q92 25 139 73t47 130q0 88 -72.5 134t-195.5 46q-88 0 -157 -27.5t-112 -91.5q35 -35 46.5 -50t21.5 -36h25q12 78 50 108t95 30 q55 0 91 -33t36 -102q0 -74 -40 -115t-107 -41q-27 0 -52 8q6 -25 6 -51q0 -27 -6 -39q6 2 17 4q39 6 61 6q78 0 116 -48t38 -120q0 -80 -44 -127t-112 -47q-80 0 -124 43t-50 78h-27q-20 -47 -29.5 -64.5t-27.5 -44.5z" />
<glyph unicode="&#xb4;" horiz-adv-x="530" d="M104 1167h105l336 207q18 12 30.5 29.5t12.5 46.5q0 37 -28 60.5t-68 23.5q-27 0 -51.5 -15.5t-47.5 -39.5z" />
<glyph unicode="&#xb5;" horiz-adv-x="1175" d="M133 -532q37 6 63.5 9t61.5 3q49 0 74.5 -3t58.5 -9q-10 111 -15 236.5t-5 315.5q53 -43 135 -43q94 0 176 51.5t119 137.5q0 -68 -1 -88.5t-7 -77.5q14 2 26 4q59 8 90 8q20 0 64 -6q37 -4 65 -6v6q-6 55 -8 82t-4 76t-3 112.5t-1 157.5q0 246 20 549q-47 -6 -78.5 -9 t-60.5 -3q-45 0 -119 12q10 -80 12.5 -202t2.5 -283q0 -76 -10.5 -141.5t-34 -117t-66.5 -81t-106 -29.5q-72 0 -114 26.5t-61.5 75t-24.5 108.5t-5 157q0 47 1 110.5t4 140t8 139t11 97.5q-68 -12 -133 -12q-59 0 -131 12q6 -49 9.5 -142t5.5 -208q2 -145 2 -418 q0 -213 -4 -369q-2 -117 -6.5 -212t-10.5 -166z" />
<glyph unicode="&#xb6;" horiz-adv-x="1228" d="M82 926q0 -207 109.5 -331t312.5 -138v-873h153v1698h230v-1698h153v1698h103v123h-531q-154 0 -258 -45t-163.5 -118t-84 -154.5t-24.5 -161.5z" />
<glyph unicode="&#xb8;" horiz-adv-x="530" d="M43 -410q35 -16 84 -24t98 -8q47 0 91 7t85 25.5t67 55.5t26 92q0 72 -53.5 105.5t-131.5 33.5q-35 0 -59 -8l63 131h-86l-88 -197l25 -16q2 0 6 2q25 6 43 6q43 0 73.5 -17.5t30.5 -58.5q0 -47 -35.5 -64t-76.5 -17q-35 0 -61.5 5t-67.5 19z" />
<glyph unicode="&#xb9;" horiz-adv-x="696" d="M53 1206q25 -23 34 -32t26 -27q18 10 53 29.5t63.5 35t73.5 37.5v-219q0 -233 -2 -311q-2 -43 -5 -79t-9 -79q16 2 37 4q45 4 63 4q31 0 78 -6q8 -2 14 -2q-6 59 -8 138.5t-2 183.5q0 129 2 254q2 88 5 156.5t7 101.5l-26 12q-23 -12 -73 -39t-69 -35q-90 -41 -142 -62.5 t-120 -45.5v-19z" />
<glyph unicode="&#xba;" horiz-adv-x="790" d="M55 1077q0 -141 92.5 -223t247.5 -82q158 0 249 81t91 224q0 150 -90 228.5t-250 78.5q-156 0 -248 -82.5t-92 -224.5zM233 1079q0 41 6.5 82t24 79t50 61.5t81.5 23.5t82 -23.5t50.5 -60.5t23.5 -79t6 -85q0 -41 -6 -83t-23.5 -78.5t-50.5 -60.5t-82 -24t-81.5 24 t-50 61.5t-24 78.5t-6.5 84z" />
<glyph unicode="&#xbb;" horiz-adv-x="909" d="M102 205l4 -2q37 -25 52.5 -37t52.5 -43q4 6 34.5 55t69.5 106.5t81 117t77 100.5l-59 90q-33 51 -41 61q-121 186 -156 252l-6 -4q-39 -31 -56.5 -43t-52.5 -33q23 -25 51.5 -64.5t59.5 -85.5t61.5 -95.5t47.5 -77.5q-14 -18 -46 -62.5t-68 -94.5t-66.5 -90t-39.5 -50z M440 205q10 -6 11 -8q31 -20 48 -33.5t50 -40.5q33 59 102.5 162.5t157.5 216.5l-59 90q-92 141 -131 202.5t-66 110.5q-35 -29 -53.5 -42t-59.5 -38q57 -70 107.5 -146.5t107.5 -174.5l2 -2q-12 -16 -145 -199q-72 -96 -72 -98z" />
<glyph unicode="&#xbc;" horiz-adv-x="1730" d="M53 1206q25 -23 34 -32t26 -27q18 10 53 29.5t63.5 35t73.5 37.5v-219q0 -233 -2 -311q-2 -43 -5 -79t-9 -79q16 2 37 4q45 4 63 4q31 0 78 -6q8 -2 14 -2q-6 59 -8 138.5t-2 183.5q0 129 2 254q2 88 5 156.5t7 101.5l-26 12q-23 -12 -73 -39t-69 -35q-90 -41 -142 -62.5 t-120 -45.5v-19zM418 -43h98l819 1468h-98zM1051 207q27 2 64.5 3t76.5 1q131 0 219 -2q0 -94 -1 -128t-9 -81q14 0 45 4q33 4 51 4q20 0 62 -6q18 -2 20 -2q-6 47 -7 78t-1 131h53q31 -2 59 -2q-4 20 -6 30.5t-2 24.5q0 16 2 27.5l6 34.5q-72 -2 -112 -2q0 104 2 258 q2 100 3 157.5t3 83.5q-37 -8 -59 -8q-39 0 -68 8q-8 -16 -15 -26.5t-38 -49.5l-31 -40l-190 -250q-61 -82 -93 -121q-6 -10 -14 -17q-20 -25 -20 -30v-80zM1163 322l248 327v-327h-248z" />
<glyph unicode="&#xbd;" horiz-adv-x="1730" d="M53 1206q25 -23 34 -32t26 -27q18 10 53 29.5t63.5 35t73.5 37.5v-219q0 -233 -2 -311q-2 -43 -5 -79t-9 -79q16 2 37 4q45 4 63 4q31 0 78 -6q8 -2 14 -2q-6 59 -8 138.5t-2 183.5q0 129 2 254q2 88 5 156.5t7 101.5l-26 12q-23 -12 -73 -39t-69 -35q-90 -41 -142 -62.5 t-120 -45.5v-19zM408 -43h98l819 1468h-98zM1075 0q90 4 150.5 6t146.5 2q59 0 104.5 -1t120.5 -5l70 -2q-4 33 -4 63q0 51 6 78q-45 -6 -127 -7t-266 -1q10 8 40 34t59.5 53.5t68.5 63t53 50.5q80 80 109.5 138t29.5 134q0 61 -24.5 105.5t-65.5 70t-90 36.5t-100 11 q-109 0 -174.5 -39.5t-104.5 -121.5l82 -78l17 12q8 72 43.5 114t103.5 42q72 0 100.5 -51.5t28.5 -124.5q0 -80 -31.5 -148.5t-83.5 -130.5q-43 -53 -118.5 -125t-143.5 -129v-49z" />
<glyph unicode="&#xbe;" horiz-adv-x="1730" d="M45 616q55 -45 118.5 -62t129.5 -17q63 0 123.5 15t112 47t82 79t30.5 108q0 98 -63.5 146.5t-161.5 52.5q-14 0 -15 4q0 2 7 4h4q92 25 139 73t47 130q0 88 -72.5 134t-195.5 46q-88 0 -157 -27.5t-112 -91.5q35 -35 46.5 -50t21.5 -36h25q12 78 50 108t95 30 q55 0 91 -33t36 -102q0 -74 -40 -115t-107 -41q-27 0 -52 8q6 -25 6 -51q0 -27 -6 -39q6 2 17 4q39 6 61 6q78 0 116 -48t38 -120q0 -80 -44 -127t-112 -47q-80 0 -124 43t-50 78h-27q-20 -47 -29.5 -64.5t-27.5 -44.5zM428 -43h98l820 1468h-99zM1051 207q27 2 64.5 3 t76.5 1q131 0 219 -2q0 -94 -1 -128t-9 -81q14 0 45 4q33 4 51 4q20 0 62 -6q18 -2 20 -2q-6 47 -7 78t-1 131h53q31 -2 59 -2q-4 20 -6 30.5t-2 24.5q0 16 2 27.5l6 34.5q-72 -2 -112 -2q0 104 2 258q2 100 3 157.5t3 83.5q-37 -8 -59 -8q-39 0 -68 8q-8 -16 -15 -26.5 t-38 -49.5l-31 -40l-190 -250q-61 -82 -93 -121q-6 -10 -14 -17q-20 -25 -20 -30v-80zM1163 322l248 327v-327h-248z" />
<glyph unicode="&#xbf;" horiz-adv-x="757" d="M68 -135q0 -121 99 -202t245 -81q88 0 141 20.5t109 57.5l-15 121h-18q-53 -109 -164 -109q-29 0 -58.5 7.5t-56 23.5t-43 46t-16.5 73q0 33 14 69.5t64 88.5l71 71q59 59 95 106.5t51.5 81t18.5 58.5t3 53q0 102 -66.5 168t-191.5 66q-39 0 -58.5 -3t-51.5 -18l-23 -76 l4 -4l4 2q53 27 86 27q41 0 69 -26.5t28 -67.5q0 -23 -5.5 -39.5t-20.5 -36.5t-44 -51t-84 -88l-4 -4q-98 -100 -140 -167t-42 -167zM274 848q0 -59 42 -102.5t104 -43.5q59 0 102 43t43 103q0 59 -43 102t-102 43q-61 0 -103.5 -43t-42.5 -102z" />
<glyph unicode="&#xc0;" horiz-adv-x="1327" d="M-10 0q6 2 26 4q41 8 66 8t80 -8q8 -2 18 -4q23 82 67 197.5t97 246.5q164 8 246 9q88 0 256 -9h6l86 -217l86 -227q18 2 47 4q70 8 105 8q39 0 120 -8q31 -4 39 -4q-33 72 -64.5 143.5t-94 211t-146.5 331.5q-86 201 -157.5 378t-137.5 361q-37 -10 -65 -10 q-31 0 -68 10q-33 -115 -110.5 -298t-264.5 -599zM365 1759q0 -31 12 -48t31 -28l333 -206h105l-289 311l-2 4q-27 25 -48.5 38t-51.5 13q-29 0 -59.5 -21.5t-30.5 -62.5zM391 571l209 504l193 -504h-7q-123 -8 -182 -8q-47 0 -127 4q-66 4 -86 4z" />
<glyph unicode="&#xc1;" horiz-adv-x="1327" d="M-10 0q6 2 26 4q41 8 66 8t80 -8q8 -2 18 -4q23 82 67 197.5t97 246.5q164 8 246 9q88 0 256 -9h6l86 -217l86 -227q18 2 47 4q70 8 105 8q39 0 120 -8q31 -4 39 -4q-33 72 -64.5 143.5t-94 211t-146.5 331.5q-86 201 -157.5 378t-137.5 361q-37 -10 -65 -10 q-31 0 -68 10q-33 -115 -110.5 -298t-264.5 -599zM391 571l209 504l193 -504h-7q-123 -8 -182 -8q-47 0 -127 4q-66 4 -86 4zM504 1495h104l336 207q18 12 30.5 29.5t12.5 46.5q0 37 -27.5 60.5t-68.5 23.5q-27 0 -51.5 -15.5t-46.5 -40.5z" />
<glyph unicode="&#xc2;" horiz-adv-x="1327" d="M-10 0q6 2 26 4q41 8 66 8t80 -8q8 -2 18 -4q23 82 67 197.5t97 246.5q164 8 246 9q88 0 256 -9h6l86 -217l86 -227q18 2 47 4q70 8 105 8q39 0 120 -8q31 -4 39 -4q-33 72 -64.5 143.5t-94 211t-146.5 331.5q-86 201 -157.5 378t-137.5 361q-37 -10 -65 -10 q-31 0 -68 10q-33 -115 -110.5 -298t-264.5 -599zM332 1477h100l234 204l231 -204h102l-254 352h-161zM391 571l209 504l193 -504h-7q-123 -8 -182 -8q-47 0 -127 4q-66 4 -86 4z" />
<glyph unicode="&#xc3;" horiz-adv-x="1327" d="M-10 0q6 2 26 4q41 8 66 8t80 -8q8 -2 18 -4q23 82 67 197.5t97 246.5q164 8 246 9q88 0 256 -9h6l86 -217l86 -227q18 2 47 4q70 8 105 8q39 0 120 -8q31 -4 39 -4q-33 72 -64.5 143.5t-94 211t-146.5 331.5q-86 201 -157.5 378t-137.5 361q-37 -10 -65 -10 q-31 0 -68 10q-33 -115 -110.5 -298t-264.5 -599zM317 1522h74q14 39 41 64.5t66 25.5q25 0 100 -33q63 -27 109.5 -41t93.5 -14q59 0 100 24.5t66.5 61.5t38 71.5t22.5 71.5h-74q-12 -37 -34.5 -63.5t-73.5 -26.5q-33 0 -129 39q-4 2 -15 6l-4 2q-51 18 -87 29.5t-68 11.5 q-53 0 -93 -23.5t-66 -59.5t-40 -69.5t-27 -76.5zM391 571l209 504l193 -504h-7q-123 -8 -182 -8q-47 0 -127 4q-66 4 -86 4z" />
<glyph unicode="&#xc4;" horiz-adv-x="1327" d="M-10 0q6 2 26 4q41 8 66 8t80 -8q8 -2 18 -4q23 82 67 197.5t97 246.5q164 8 246 9q88 0 256 -9h6l86 -217l86 -227q18 2 47 4q70 8 105 8q39 0 120 -8q31 -4 39 -4q-33 72 -64.5 143.5t-94 211t-146.5 331.5q-86 201 -157.5 378t-137.5 361q-37 -10 -65 -10 q-31 0 -68 10q-33 -115 -110.5 -298t-264.5 -599zM334 1618q0 -49 34.5 -85t86.5 -36q51 0 85.5 37t34.5 84q0 49 -34.5 85t-85.5 36t-86 -35t-35 -86zM391 571l209 504l193 -504h-7q-123 -8 -182 -8q-47 0 -127 4q-66 4 -86 4zM754 1618q0 -49 34.5 -85t85.5 -36t86 37 t35 84q0 49 -34.5 85t-86.5 36q-51 0 -85.5 -35t-34.5 -86z" />
<glyph unicode="&#xc5;" horiz-adv-x="1327" d="M-10 0q6 2 26 4q41 8 66 8t80 -8q8 -2 18 -4q23 82 67 197.5t97 246.5q164 8 246 9q88 0 256 -9h6l86 -217l86 -227q18 2 47 4q70 8 105 8q39 0 120 -8q31 -4 39 -4q-33 72 -64.5 143.5t-94 211t-146.5 331.5q-86 201 -157.5 378t-137.5 361q-37 -10 -65 -10 q-31 0 -68 10q-33 -115 -110.5 -298t-264.5 -599zM391 571l209 504l193 -504h-7q-123 -8 -182 -8q-47 0 -127 4q-66 4 -86 4zM453 1671q0 -84 62.5 -147.5t148.5 -63.5q84 0 147 62.5t63 148.5q0 84 -63 147.5t-147 63.5q-86 0 -148.5 -63.5t-62.5 -147.5zM539 1671 q0 49 36.5 87t88.5 38q49 0 86.5 -38t37.5 -87q0 -51 -37.5 -88t-86.5 -37t-87 37t-38 88z" />
<glyph unicode="&#xc6;" horiz-adv-x="1744" d="M-63 0q14 0 49 6q41 6 59 6q37 0 111 -12q12 23 48 87.5t50 88t20 35.5q4 8 23.5 41t44.5 70.5t46.5 71.5t33.5 48q121 8 252 9q160 0 241 -9q0 -35 -4 -159q0 -12 -2 -66l-8 -217q190 12 387 12q184 0 369 -12q-10 29 -10 74t10 67q-74 -4 -155 -6t-196.5 -5t-138.5 -3 v555q96 0 285 -4q51 -2 158 -10q-10 25 -11 69q0 37 11 74q-33 -4 -93.5 -7t-130.5 -5q-100 -2 -219 -2v481h186.5t98.5 -4l193 -10q-10 27 -11 75q0 25 11 66l-82 -4q-199 -8 -303 -8q-178 0 -383 12l-15 -27q-29 -51 -52.5 -92t-44 -75.5t-51 -82t-93.5 -143.5 q-8 -10 -56.5 -83t-110 -165t-98.5 -146t-67 -97q-6 -10 -90 -129q-115 -166 -155 -222.5t-67.5 -93.5t-39.5 -49zM498 567q8 10 26 43q16 25 21 31l192 303q61 98 107 170q49 74 58 90.5t18 30.5l-5 -668q-90 -8 -204 -8q-51 0 -100.5 2t-112.5 6z" />
<glyph unicode="&#xc7;" horiz-adv-x="1441" d="M104 680q0 -160 51.5 -288t143.5 -218t214 -140t263 -59l-78 -172l25 -16q2 0 6 2q25 6 43 6q43 0 74 -17.5t31 -58.5q0 -47 -36 -64t-77 -17q-35 0 -61.5 5t-67.5 19l-33 -72q35 -16 84 -24t98 -8q47 0 91.5 7t85 25.5t66.5 55.5t26 92q0 72 -53.5 105.5t-131.5 33.5 q-35 0 -59 -8l51 104q268 2 494 127l22 203l-22 14q-41 -49 -82 -86.5t-98.5 -72.5t-130 -54.5t-162.5 -19.5q-129 0 -218.5 51t-152.5 135q-43 57 -69.5 121t-38 120t-14.5 100t-3 87q0 293 135 453t389 160q102 0 175 -21.5t116 -52.5t64.5 -59.5t35.5 -59.5h21l61 201 q-121 55 -235.5 78.5t-243.5 23.5q-199 0 -350.5 -56t-250.5 -157.5t-148.5 -235.5t-49.5 -292z" />
<glyph unicode="&#xc8;" d="M170 0q197 12 383 12q193 0 377 -12q-10 29 -10 74t10 67q-74 -4 -156 -6t-196.5 -5t-137.5 -3v555q96 0 285 -4q51 -2 158 -10q-10 25 -11 69q0 37 11 74q-33 -4 -93.5 -7t-130.5 -5q-100 -2 -219 -2v481h186.5t98.5 -4l193 -10q-10 27 -11 75q0 25 11 66 q-59 -2 -175 -6q-150 -6 -202 -6q-74 0 -181.5 4t-189.5 8q4 -70 8 -170t6 -217q4 -184 4 -299q0 -88 -2 -221q-2 -94 -3 -148.5t-3 -93.5q-2 -88 -10 -244v-12zM193 1759q0 -31 12 -48t31 -28l333 -206h105l-289 311l-2 4q-27 25 -48.5 38t-51.5 13q-29 0 -59.5 -21.5 t-30.5 -62.5z" />
<glyph unicode="&#xc9;" d="M170 0q197 12 383 12q193 0 377 -12q-10 29 -10 74t10 67q-74 -4 -156 -6t-196.5 -5t-137.5 -3v555q96 0 285 -4q51 -2 158 -10q-10 25 -11 69q0 37 11 74q-33 -4 -93.5 -7t-130.5 -5q-100 -2 -219 -2v481h186.5t98.5 -4l193 -10q-10 27 -11 75q0 25 11 66 q-59 -2 -175 -6q-150 -6 -202 -6q-74 0 -181.5 4t-189.5 8q4 -70 8 -170t6 -217q4 -184 4 -299q0 -88 -2 -221q-2 -94 -3 -148.5t-3 -93.5q-2 -88 -10 -244v-12zM414 1495h104l336 207q18 12 30.5 29.5t12.5 46.5q0 37 -27.5 60.5t-68.5 23.5q-27 0 -51.5 -15.5t-47.5 -40.5 z" />
<glyph unicode="&#xca;" d="M170 0q197 12 383 12q193 0 377 -12q-10 29 -10 74t10 67q-74 -4 -156 -6t-196.5 -5t-137.5 -3v555q96 0 285 -4q51 -2 158 -10q-10 25 -11 69q0 37 11 74q-33 -4 -93.5 -7t-130.5 -5q-100 -2 -219 -2v481h186.5t98.5 -4l193 -10q-10 27 -11 75q0 25 11 66 q-59 -2 -175 -6q-150 -6 -202 -6q-74 0 -181.5 4t-189.5 8q4 -70 8 -170t6 -217q4 -184 4 -299q0 -88 -2 -221q-2 -94 -3 -148.5t-3 -93.5q-2 -88 -10 -244v-12zM211 1477h100l234 204l231 -204h103l-254 352h-162z" />
<glyph unicode="&#xcb;" d="M170 0q197 12 383 12q193 0 377 -12q-10 29 -10 74t10 67q-74 -4 -156 -6t-196.5 -5t-137.5 -3v555q96 0 285 -4q51 -2 158 -10q-10 25 -11 69q0 37 11 74q-33 -4 -93.5 -7t-130.5 -5q-100 -2 -219 -2v481h186.5t98.5 -4l193 -10q-10 27 -11 75q0 25 11 66 q-59 -2 -175 -6q-150 -6 -202 -6q-74 0 -181.5 4t-189.5 8q4 -70 8 -170t6 -217q4 -184 4 -299q0 -88 -2 -221q-2 -94 -3 -148.5t-3 -93.5q-2 -88 -10 -244v-12zM203 1618q0 -49 34.5 -85t86.5 -36q51 0 85.5 37t34.5 84q0 49 -34.5 85t-85.5 36t-86 -35t-35 -86zM623 1618 q0 -49 34.5 -85t85.5 -36t86 37t35 84q0 49 -34.5 85t-86.5 36q-51 0 -85.5 -35t-34.5 -86z" />
<glyph unicode="&#xcc;" horiz-adv-x="645" d="M2 1759q0 -31 12.5 -48t30.5 -28l334 -206h104l-288 311l-2 4q-27 25 -48.5 38t-52.5 13q-29 0 -59.5 -21.5t-30.5 -62.5zM176 0q18 0 64 6q57 6 84 6q25 0 79 -6q45 -6 64 -6q-12 119 -16.5 282.5t-4.5 409.5q0 244 3 377q4 104 8 194.5t12 141.5q-98 -12 -145 -12 q-18 0 -58.5 3t-81.5 9h-6q14 -135 17.5 -237.5t3.5 -235.5q0 -346 -4.5 -558t-18.5 -374z" />
<glyph unicode="&#xcd;" horiz-adv-x="645" d="M162 1495h104l336 207q18 12 30.5 29.5t12.5 46.5q0 37 -27.5 60.5t-68.5 23.5q-27 0 -51.5 -15.5t-46.5 -40.5zM176 0q18 0 64 6q57 6 84 6q25 0 79 -6q45 -6 64 -6q-12 119 -16.5 282.5t-4.5 409.5q0 244 3 377q4 104 8 194.5t12 141.5q-98 -12 -145 -12q-18 0 -58.5 3 t-81.5 9h-6q14 -135 17.5 -237.5t3.5 -235.5q0 -346 -4.5 -558t-18.5 -374z" />
<glyph unicode="&#xce;" horiz-adv-x="645" d="M-10 1477h100l234 204l231 -204h102l-254 352h-161zM176 0q18 0 64 6q57 6 84 6q25 0 79 -6q45 -6 64 -6q-12 119 -16.5 282.5t-4.5 409.5q0 244 3 377q4 104 8 194.5t12 141.5q-98 -12 -145 -12q-18 0 -58.5 3t-81.5 9h-6q14 -135 17.5 -237.5t3.5 -235.5 q0 -346 -4.5 -558t-18.5 -374z" />
<glyph unicode="&#xcf;" horiz-adv-x="645" d="M-8 1618q0 -49 34.5 -85t86.5 -36q51 0 85.5 37t34.5 84q0 49 -34.5 85t-85.5 36t-86 -35t-35 -86zM176 0q18 0 64 6q57 6 84 6q25 0 79 -6q45 -6 64 -6q-12 119 -16.5 282.5t-4.5 409.5q0 244 3 377q4 104 8 194.5t12 141.5q-98 -12 -145 -12q-18 0 -58.5 3t-81.5 9h-6 q14 -135 17.5 -237.5t3.5 -235.5q0 -346 -4.5 -558t-18.5 -374zM412 1618q0 -49 34.5 -85t85.5 -36t86 37t35 84q0 49 -34.5 85t-86.5 36q-51 0 -85.5 -35t-34.5 -86z" />
<glyph unicode="&#xd0;" horiz-adv-x="1593" d="M14 692q14 0 39 2q100 8 131 8q0 -68 -2 -174v-129l-12 -399l47 4q96 6 145 6q57 0 189 -4q131 -6 188 -6q135 0 238.5 25.5t206.5 91.5q147 94 226 253.5t79 372.5q0 160 -59.5 294t-176.5 225q-113 88 -278 120q-68 12 -133.5 16.5t-149.5 4.5q-66 0 -186 -6 q-115 -4 -168 -4q-43 0 -127 6l-41 4q6 -121 8 -183.5t2 -80.5q2 -29 3 -144.5t1 -177.5q-51 0 -74.5 2t-86.5 10h-9q6 -33 6 -65q0 -35 -6 -72zM436 702q47 0 118 -1t134 -3l98 -2q0 12 -2 29q-4 29 -4 41q0 14 4 45l2 23q-80 -6 -102 -8.5t-68.5 -4.5t-70 -2t-109.5 -2 v221q0 63 6 189l4 59q117 10 211 10q154 0 260.5 -48t171 -129t92 -179t27.5 -205q0 -184 -52 -310t-131 -193.5t-158 -95t-142 -27.5q-20 0 -62 1t-124 5t-93 4q-4 121 -6 166t-2 96q-2 78 -2 321z" />
<glyph unicode="&#xd1;" horiz-adv-x="1554" d="M162 0q49 12 82 12q18 0 59 -8q27 -4 33 -4q0 6 -2 35q-10 135 -12.5 165.5t-2.5 48t-2 79.5q-2 166 -4 312t-2 333q84 -76 213 -202t268.5 -265t270.5 -273.5t229 -242.5q29 4 43 4q12 0 41 -4v106q-2 94 -2 97v247q-2 174 -2 273q0 121 1 200.5t3 161.5t7.5 167 t11.5 163q-49 -12 -86 -12q-39 0 -88 12q25 -289 24 -518v-455l-14 12q-33 27 -48.5 40.5t-39.5 35.5l-242 238q-180 176 -328.5 330.5t-296.5 316.5h-4q-29 -4 -43 -4q-16 0 -49 4q4 -381 4 -576v-278q0 -49 -2 -140.5t-4 -125.5zM430 1522h74q14 39 40.5 64.5t65.5 25.5 q25 0 101 -33q63 -27 109 -41t93 -14q59 0 100.5 24.5t67 61.5t37.5 71.5t23 71.5h-74q-12 -37 -34.5 -63.5t-74.5 -26.5q-33 0 -129 39q-4 2 -14 6l-4 2q-51 18 -87 29.5t-69 11.5q-53 0 -93 -23.5t-65.5 -59.5t-40 -69.5t-26.5 -76.5z" />
<glyph unicode="&#xd2;" horiz-adv-x="1744" d="M109 672q0 -164 58 -295t162.5 -221t244 -137.5t298.5 -47.5q170 0 310.5 52.5t243 151.5t156.5 237.5t54 308.5q0 178 -62.5 311t-169 220t-242.5 128t-283 41q-160 0 -298.5 -45t-245 -137t-166.5 -234.5t-60 -332.5zM389 696q0 111 27.5 220.5t85 200.5t152 145.5 t218.5 54.5q131 0 224.5 -48t150 -133t83 -197t26.5 -243q0 -115 -28 -224.5t-86 -199.5t-151.5 -143t-218.5 -53q-127 0 -220 52t-150.5 140t-85 198.5t-27.5 229.5zM553 1759q0 -31 12.5 -48t30.5 -28l334 -206h104l-289 311l-2 4q-27 25 -48 38t-52 13q-29 0 -59.5 -21.5 t-30.5 -62.5z" />
<glyph unicode="&#xd3;" horiz-adv-x="1744" d="M109 672q0 -164 58 -295t162.5 -221t244 -137.5t298.5 -47.5q170 0 310.5 52.5t243 151.5t156.5 237.5t54 308.5q0 178 -62.5 311t-169 220t-242.5 128t-283 41q-160 0 -298.5 -45t-245 -137t-166.5 -234.5t-60 -332.5zM389 696q0 111 27.5 220.5t85 200.5t152 145.5 t218.5 54.5q131 0 224.5 -48t150 -133t83 -197t26.5 -243q0 -115 -28 -224.5t-86 -199.5t-151.5 -143t-218.5 -53q-127 0 -220 52t-150.5 140t-85 198.5t-27.5 229.5zM713 1495h104l336 207q18 12 30.5 29.5t12.5 46.5q0 37 -27.5 60.5t-68.5 23.5q-27 0 -51.5 -15.5 t-47.5 -40.5z" />
<glyph unicode="&#xd4;" horiz-adv-x="1744" d="M109 672q0 -164 58 -295t162.5 -221t244 -137.5t298.5 -47.5q170 0 310.5 52.5t243 151.5t156.5 237.5t54 308.5q0 178 -62.5 311t-169 220t-242.5 128t-283 41q-160 0 -298.5 -45t-245 -137t-166.5 -234.5t-60 -332.5zM389 696q0 111 27.5 220.5t85 200.5t152 145.5 t218.5 54.5q131 0 224.5 -48t150 -133t83 -197t26.5 -243q0 -115 -28 -224.5t-86 -199.5t-151.5 -143t-218.5 -53q-127 0 -220 52t-150.5 140t-85 198.5t-27.5 229.5zM541 1477h100l233 204l232 -204h102l-254 352h-161z" />
<glyph unicode="&#xd5;" horiz-adv-x="1744" d="M109 672q0 -164 58 -295t162.5 -221t244 -137.5t298.5 -47.5q170 0 310.5 52.5t243 151.5t156.5 237.5t54 308.5q0 178 -62.5 311t-169 220t-242.5 128t-283 41q-160 0 -298.5 -45t-245 -137t-166.5 -234.5t-60 -332.5zM389 696q0 111 27.5 220.5t85 200.5t152 145.5 t218.5 54.5q131 0 224.5 -48t150 -133t83 -197t26.5 -243q0 -115 -28 -224.5t-86 -199.5t-151.5 -143t-218.5 -53q-127 0 -220 52t-150.5 140t-85 198.5t-27.5 229.5zM526 1522h74q14 39 41 64.5t66 25.5q25 0 100 -33q63 -27 109.5 -41t93.5 -14q59 0 100 24.5t66.5 61.5 t38 71.5t22.5 71.5h-74q-12 -37 -34.5 -63.5t-73.5 -26.5q-33 0 -129 39q-4 2 -15 6l-4 2q-51 18 -87 29.5t-68 11.5q-53 0 -93.5 -23.5t-66 -59.5t-39.5 -69.5t-27 -76.5z" />
<glyph unicode="&#xd6;" horiz-adv-x="1744" d="M109 672q0 -164 58 -295t162.5 -221t244 -137.5t298.5 -47.5q170 0 310.5 52.5t243 151.5t156.5 237.5t54 308.5q0 178 -62.5 311t-169 220t-242.5 128t-283 41q-160 0 -298.5 -45t-245 -137t-166.5 -234.5t-60 -332.5zM389 696q0 111 27.5 220.5t85 200.5t152 145.5 t218.5 54.5q131 0 224.5 -48t150 -133t83 -197t26.5 -243q0 -115 -28 -224.5t-86 -199.5t-151.5 -143t-218.5 -53q-127 0 -220 52t-150.5 140t-85 198.5t-27.5 229.5zM543 1618q0 -49 34.5 -85t86.5 -36q51 0 85.5 37t34.5 84q0 49 -34.5 85t-85.5 36t-86 -35t-35 -86z M963 1618q0 -49 34.5 -85t85.5 -36t86 37t35 84q0 49 -34.5 85t-86.5 36q-51 0 -85.5 -35t-34.5 -86z" />
<glyph unicode="&#xd7;" horiz-adv-x="1366" d="M168 207l94 -96l420 419l418 -419l94 96l-420 420l420 417l-94 95l-418 -420l-420 420l-94 -95l420 -417z" />
<glyph unicode="&#xd8;" horiz-adv-x="1744" d="M90 -92q35 -20 50.5 -32.5t35.5 -37.5l227 256q104 -72 220 -97.5t245 -25.5q170 0 310.5 52.5t243 151.5t156.5 237.5t54 308.5t-56 299t-159 217q102 115 215 229q-39 27 -54 40.5t-30 35.5l-209 -246q-96 63 -215.5 94t-249.5 31q-160 0 -298 -45t-244.5 -137 t-167 -234.5t-60.5 -332.5q0 -49 7.5 -106.5t28 -122t60.5 -134t101 -131.5l21 -20q-119 -131 -232 -250zM385 662q0 184 44 313t115.5 203.5t155.5 106.5t170 32q113 0 201.5 -41t149.5 -115q-221 -252 -404.5 -457.5t-349.5 -388.5q-41 80 -61.5 171.5t-20.5 175.5z M524 231q537 612 750 850q78 -143 78 -340q0 -125 -24.5 -241.5t-79 -213t-148.5 -153.5t-228 -57q-117 0 -201.5 41t-146.5 114z" />
<glyph unicode="&#xd9;" horiz-adv-x="1478" d="M156 1405q4 -72 7 -179.5t3 -189.5v-557q0 -29 1 -58.5t3 -49.5q16 -113 72.5 -191t139.5 -123t178 -63.5t196 -18.5q90 0 183 22.5t161 65.5q106 68 156.5 166.5t52.5 272.5q2 51 2 129q6 256 8 369.5t5 187.5t5 119l6 98q-2 0 -28 -4q-45 -8 -68 -8q-25 0 -65 8 q-18 2 -27 4q18 -299 18 -801q0 -119 -6 -179t-20 -97q-35 -94 -127 -152.5t-215 -58.5q-106 0 -187.5 32.5t-126.5 92.5q-23 31 -35 63.5t-18 83.5t-8 127t-2 205q0 182 1 306t5 222l6 156q-82 -12 -133 -12q-49 0 -143 12zM420 1759q0 -31 12 -48t31 -28l334 -206h104 l-289 311l-2 4q-27 25 -48 38t-52 13q-29 0 -59.5 -21.5t-30.5 -62.5z" />
<glyph unicode="&#xda;" horiz-adv-x="1478" d="M156 1405q4 -72 7 -179.5t3 -189.5v-557q0 -29 1 -58.5t3 -49.5q16 -113 72.5 -191t139.5 -123t178 -63.5t196 -18.5q90 0 183 22.5t161 65.5q106 68 156.5 166.5t52.5 272.5q2 51 2 129q6 256 8 369.5t5 187.5t5 119l6 98q-2 0 -28 -4q-45 -8 -68 -8q-25 0 -65 8 q-18 2 -27 4q18 -299 18 -801q0 -119 -6 -179t-20 -97q-35 -94 -127 -152.5t-215 -58.5q-106 0 -187.5 32.5t-126.5 92.5q-23 31 -35 63.5t-18 83.5t-8 127t-2 205q0 182 1 306t5 222l6 156q-82 -12 -133 -12q-49 0 -143 12zM641 1495h104l336 207q18 12 30.5 29.5 t12.5 46.5q0 37 -27.5 60.5t-68.5 23.5q-27 0 -51.5 -15.5t-46.5 -40.5z" />
<glyph unicode="&#xdb;" horiz-adv-x="1478" d="M156 1405q4 -72 7 -179.5t3 -189.5v-557q0 -29 1 -58.5t3 -49.5q16 -113 72.5 -191t139.5 -123t178 -63.5t196 -18.5q90 0 183 22.5t161 65.5q106 68 156.5 166.5t52.5 272.5q2 51 2 129q6 256 8 369.5t5 187.5t5 119l6 98q-2 0 -28 -4q-45 -8 -68 -8q-25 0 -65 8 q-18 2 -27 4q18 -299 18 -801q0 -119 -6 -179t-20 -97q-35 -94 -127 -152.5t-215 -58.5q-106 0 -187.5 32.5t-126.5 92.5q-23 31 -35 63.5t-18 83.5t-8 127t-2 205q0 182 1 306t5 222l6 156q-82 -12 -133 -12q-49 0 -143 12zM438 1477h101l233 204l232 -204h102l-254 352 h-162z" />
<glyph unicode="&#xdc;" horiz-adv-x="1478" d="M156 1405q4 -72 7 -179.5t3 -189.5v-557q0 -29 1 -58.5t3 -49.5q16 -113 72.5 -191t139.5 -123t178 -63.5t196 -18.5q90 0 183 22.5t161 65.5q106 68 156.5 166.5t52.5 272.5q2 51 2 129q6 256 8 369.5t5 187.5t5 119l6 98q-2 0 -28 -4q-45 -8 -68 -8q-25 0 -65 8 q-18 2 -27 4q18 -299 18 -801q0 -119 -6 -179t-20 -97q-35 -94 -127 -152.5t-215 -58.5q-106 0 -187.5 32.5t-126.5 92.5q-23 31 -35 63.5t-18 83.5t-8 127t-2 205q0 182 1 306t5 222l6 156q-82 -12 -133 -12q-49 0 -143 12zM430 1618q0 -49 35 -85t86 -36t86 37t35 84 q0 49 -35 85t-86 36t-86 -35t-35 -86zM850 1618q0 -49 35 -85t86 -36t86 37t35 84q0 49 -35 85t-86 36t-86 -35t-35 -86z" />
<glyph unicode="&#xdd;" horiz-adv-x="1214" d="M-27 1405q47 -76 136 -223q78 -129 139 -231.5t110 -186.5l121 -209q0 -88 -4 -264q0 -61 -3 -152.5t-5 -138.5l31 4q74 8 106 8q31 0 94 -8q25 -2 47 -4q0 10 -4 78q-6 164 -8 227.5t-2 167.5v76q0 20 27 65q39 66 96 170q106 190 162 279q0 2 18 29q4 6 43 68.5 t63.5 102.5t49 79.5t37.5 62.5q-33 -12 -86 -12t-119 12q-70 -152 -101.5 -220.5t-66.5 -137t-78 -146.5t-108 -188q-68 119 -117 210t-87 164.5t-71 141t-84 176.5q-72 -12 -168 -12q-33 0 -69.5 3t-98.5 9zM508 1495h104l336 207q18 12 30.5 29.5t12.5 46.5 q0 37 -27.5 60.5t-68.5 23.5q-27 0 -51.5 -15.5t-46.5 -40.5z" />
<glyph unicode="&#xde;" horiz-adv-x="1175" d="M176 0q68 12 141 12q74 0 144 -12q-2 18 -4 47q-10 115 -11 178v97l23 -3q39 -4 63.5 -5t55.5 -1q141 0 241.5 36t161 96.5t87 134t26.5 151.5q0 104 -37 172t-102 117q-66 47 -140.5 62.5t-177.5 15.5q-102 0 -201 -6q0 127 2.5 191.5t12.5 121.5q-37 -6 -73 -9t-60 -3 q-37 0 -103 8q-39 4 -45 4l10 -258q4 -61 4.5 -149.5t0.5 -200.5l-5 -502q0 -37 -3 -98.5t-11 -196.5zM446 422v567q90 8 152 8q117 0 179.5 -78.5t62.5 -199.5q0 -47 -13.5 -98.5t-45 -98.5t-88 -77.5t-138.5 -30.5q-35 0 -102 8h-7z" />
<glyph unicode="&#xdf;" horiz-adv-x="1175" d="M137 0q23 2 35 4q68 6 98 6q27 0 58.5 -3t62.5 -7q-10 152 -10 379l-2 555q0 178 4 245.5t20 129.5q6 20 14.5 38.5t27 41t50 37t76.5 14.5q55 0 90 -23.5t52.5 -58.5t22.5 -69t5 -64q0 -96 -33.5 -149.5t-129.5 -143.5q-55 -53 -73 -81t-18 -67q0 -63 40 -106t151 -123 q129 -92 183 -151.5t54 -139.5q0 -88 -54 -136t-130 -48q-59 0 -110.5 36t-65.5 101h-33q-12 -61 -22.5 -92t-34.5 -86q31 -18 89 -36.5t124 -18.5q86 0 163 34.5t134 94t89 132t32 144.5q0 88 -46 151.5t-135 133.5q-8 6 -23 17t-42 32q-25 16 -49.5 34.5t-32.5 24.5 q-61 51 -76.5 69.5t-15.5 37.5q0 18 19.5 38.5t86.5 78.5q78 63 113 115.5t35 144.5q0 123 -87 190.5t-239 67.5q-109 0 -202 -39t-156 -109q-66 -74 -81 -146.5t-15 -223.5l2 -105v-115q0 -348 -11 -600z" />
<glyph unicode="&#xe0;" d="M74 225q0 -37 12 -78t43 -80.5t87 -65.5t140 -26q80 0 154 38t121 102q25 -63 56.5 -94t113.5 -31q37 0 78 12t96 33q-8 25 -8 37t8 37q-37 -16 -57 -17q-49 0 -60.5 45t-11.5 205q0 31 2 166q4 143 4 184q0 152 -100.5 229.5t-272.5 77.5q-80 0 -145.5 -22.5 t-179.5 -91.5q2 -18 2 -56q0 -35 -11 -100q20 4 33 4q10 0 31 -4q6 23 19.5 46.5t40 47t66.5 37.5t95 14q90 0 144.5 -53t54.5 -164q0 -25 -8 -41q-8 -14 -32 -23t-116 -34l-70 -18h-2q-90 -25 -142 -43.5t-95 -51t-66.5 -86t-23.5 -135.5zM193 1432q0 -31 12 -48.5 t31 -27.5l333 -207h105l-289 311l-2 4q-27 25 -48.5 38.5t-51.5 13.5q-29 0 -59.5 -21.5t-30.5 -62.5zM305 276q0 55 16.5 89t53.5 57.5t89 40t159 45.5v-213q0 -82 -50.5 -138.5t-132.5 -56.5q-61 0 -98 47.5t-37 128.5z" />
<glyph unicode="&#xe1;" d="M74 225q0 -37 12 -78t43 -80.5t87 -65.5t140 -26q80 0 154 38t121 102q25 -63 56.5 -94t113.5 -31q37 0 78 12t96 33q-8 25 -8 37t8 37q-37 -16 -57 -17q-49 0 -60.5 45t-11.5 205q0 31 2 166q4 143 4 184q0 152 -100.5 229.5t-272.5 77.5q-80 0 -145.5 -22.5 t-179.5 -91.5q2 -18 2 -56q0 -35 -11 -100q20 4 33 4q10 0 31 -4q6 23 19.5 46.5t40 47t66.5 37.5t95 14q90 0 144.5 -53t54.5 -164q0 -25 -8 -41q-8 -14 -32 -23t-116 -34l-70 -18h-2q-90 -25 -142 -43.5t-95 -51t-66.5 -86t-23.5 -135.5zM305 276q0 55 16.5 89t53.5 57.5 t89 40t159 45.5v-213q0 -82 -50.5 -138.5t-132.5 -56.5q-61 0 -98 47.5t-37 128.5zM332 1167h104l336 207q18 12 30.5 29.5t12.5 46.5q0 37 -27.5 60.5t-68.5 23.5q-27 0 -51.5 -15.5t-46.5 -39.5z" />
<glyph unicode="&#xe2;" d="M74 225q0 -37 12 -78t43 -80.5t87 -65.5t140 -26q80 0 154 38t121 102q25 -63 56.5 -94t113.5 -31q37 0 78 12t96 33q-8 25 -8 37t8 37q-37 -16 -57 -17q-49 0 -60.5 45t-11.5 205q0 31 2 166q4 143 4 184q0 152 -100.5 229.5t-272.5 77.5q-80 0 -145.5 -22.5 t-179.5 -91.5q2 -18 2 -56q0 -35 -11 -100q20 4 33 4q10 0 31 -4q6 23 19.5 46.5t40 47t66.5 37.5t95 14q90 0 144.5 -53t54.5 -164q0 -25 -8 -41q-8 -14 -32 -23t-116 -34l-70 -18h-2q-90 -25 -142 -43.5t-95 -51t-66.5 -86t-23.5 -135.5zM180 1149h101l233 205l231 -205 h103l-254 352h-162zM305 276q0 55 16.5 89t53.5 57.5t89 40t159 45.5v-213q0 -82 -50.5 -138.5t-132.5 -56.5q-61 0 -98 47.5t-37 128.5z" />
<glyph unicode="&#xe3;" d="M74 225q0 -37 12 -78t43 -80.5t87 -65.5t140 -26q80 0 154 38t121 102q25 -63 56.5 -94t113.5 -31q37 0 78 12t96 33q-8 25 -8 37t8 37q-37 -16 -57 -17q-49 0 -60.5 45t-11.5 205q0 31 2 166q4 143 4 184q0 152 -100.5 229.5t-272.5 77.5q-80 0 -145.5 -22.5 t-179.5 -91.5q2 -18 2 -56q0 -35 -11 -100q20 4 33 4q10 0 31 -4q6 23 19.5 46.5t40 47t66.5 37.5t95 14q90 0 144.5 -53t54.5 -164q0 -25 -8 -41q-8 -14 -32 -23t-116 -34l-70 -18h-2q-90 -25 -142 -43.5t-95 -51t-66.5 -86t-23.5 -135.5zM166 1194h74q14 39 40.5 64.5 t65.5 25.5q25 0 100 -33q63 -27 109.5 -41t93.5 -14q59 0 100.5 24.5t67 61.5t37.5 72t23 71h-74q-12 -37 -35 -63.5t-74 -26.5q-33 0 -129 39q-4 2 -14 6l-4 2q-51 18 -87 29.5t-69 11.5q-53 0 -93 -23.5t-65.5 -59t-40 -69.5t-26.5 -77zM305 276q0 55 16.5 89t53.5 57.5 t89 40t159 45.5v-213q0 -82 -50.5 -138.5t-132.5 -56.5q-61 0 -98 47.5t-37 128.5z" />
<glyph unicode="&#xe4;" d="M74 225q0 -37 12 -78t43 -80.5t87 -65.5t140 -26q80 0 154 38t121 102q25 -63 56.5 -94t113.5 -31q37 0 78 12t96 33q-8 25 -8 37t8 37q-37 -16 -57 -17q-49 0 -60.5 45t-11.5 205q0 31 2 166q4 143 4 184q0 152 -100.5 229.5t-272.5 77.5q-80 0 -145.5 -22.5 t-179.5 -91.5q2 -18 2 -56q0 -35 -11 -100q20 4 33 4q10 0 31 -4q6 23 19.5 46.5t40 47t66.5 37.5t95 14q90 0 144.5 -53t54.5 -164q0 -25 -8 -41q-8 -14 -32 -23t-116 -34l-70 -18h-2q-90 -25 -142 -43.5t-95 -51t-66.5 -86t-23.5 -135.5zM182 1290q0 -49 35 -85t86 -36 t86 37t35 84q0 49 -35 85t-86 36t-86 -35t-35 -86zM305 276q0 55 16.5 89t53.5 57.5t89 40t159 45.5v-213q0 -82 -50.5 -138.5t-132.5 -56.5q-61 0 -98 47.5t-37 128.5zM602 1290q0 -49 35 -85t86 -36t86 37t35 84q0 49 -35 85t-86 36t-86 -35t-35 -86z" />
<glyph unicode="&#xe5;" d="M74 225q0 -37 12 -78t43 -80.5t87 -65.5t140 -26q80 0 154 38t121 102q25 -63 56.5 -94t113.5 -31q37 0 78 12t96 33q-8 25 -8 37t8 37q-37 -16 -57 -17q-49 0 -60.5 45t-11.5 205q0 31 2 166q4 143 4 184q0 152 -100.5 229.5t-272.5 77.5q-80 0 -145.5 -22.5 t-179.5 -91.5q2 -18 2 -56q0 -35 -11 -100q20 4 33 4q10 0 31 -4q6 23 19.5 46.5t40 47t66.5 37.5t95 14q90 0 144.5 -53t54.5 -164q0 -25 -8 -41q-8 -14 -32 -23t-116 -34l-70 -18h-2q-90 -25 -142 -43.5t-95 -51t-66.5 -86t-23.5 -135.5zM291 1343q0 -84 62.5 -147 t148.5 -63q84 0 147.5 62t63.5 148q0 84 -63.5 147.5t-147.5 63.5q-86 0 -148.5 -63.5t-62.5 -147.5zM305 276q0 55 16.5 89t53.5 57.5t89 40t159 45.5v-213q0 -82 -50.5 -138.5t-132.5 -56.5q-61 0 -98 47.5t-37 128.5zM377 1343q0 49 37 87t88 38q49 0 87 -38t38 -87 q0 -51 -38 -87.5t-87 -36.5t-87 36.5t-38 87.5z" />
<glyph unicode="&#xe6;" horiz-adv-x="1630" d="M74 248q0 -98 32.5 -147.5t71.5 -75.5q49 -33 102.5 -42.5t88.5 -9.5q39 0 104.5 14.5t132.5 63.5q41 29 64.5 55.5t50.5 65.5l4 4q12 -27 41 -60.5t77 -66.5t120.5 -55.5t166.5 -22.5q119 0 200 33t147 76q6 43 11 64.5t17 64.5l-20 12q-63 -59 -133 -93t-144 -34 q-72 0 -147.5 25.5t-126.5 97.5q-43 59 -54.5 127t-11.5 139q141 4 180 5t74 1l41 -2h47l332 -6q0 90 -6 155.5t-31 125.5q-47 117 -151.5 176t-243.5 59q-104 0 -174 -23.5t-139 -76.5q-41 43 -110 72.5t-169 29.5q-68 0 -128 -13t-109.5 -32.5t-82 -38t-42.5 -28.5v-4 q8 -33 8 -56q0 -14 -4 -43l-13 -59h58q8 20 23.5 45t42 49.5t67.5 39.5t94 15q72 0 118 -18t68.5 -49t30.5 -66.5t8 -81.5q0 -45 -16 -61q-8 -6 -32.5 -13t-129.5 -30q-106 -25 -172.5 -43t-120 -51t-83 -84t-29.5 -129zM303 272q0 86 41 122t117 61q10 4 192 53v-168 q0 -39 -5 -76t-21 -65q-25 -45 -70 -73t-92 -28q-49 0 -81 18.5t-49.5 45t-24.5 56.5t-7 54zM868 584q2 63 8.5 111t29 100.5t69.5 85t125 32.5q121 0 174 -102q23 -43 28 -94t5 -133h-439z" />
<glyph unicode="&#xe7;" horiz-adv-x="985" d="M94 475q0 -86 28 -169t83 -151.5t136 -113.5t185 -57l-80 -181l25 -16q2 0 6 2q25 6 43 6q43 0 74 -17.5t31 -58.5q0 -47 -36 -64t-77 -17q-35 0 -61.5 5t-67.5 19l-33 -72q35 -16 84 -24t98 -8q47 0 91.5 7t85.5 25.5t66.5 55.5t25.5 92q0 72 -53.5 105.5t-131.5 33.5 q-35 0 -59 -8l51 106q68 0 144.5 16.5t152.5 57.5l4 23q6 43 13.5 70.5t23.5 50.5l-33 18l-8 -6q-68 -61 -116 -88t-125 -27q-86 0 -145.5 36t-94.5 95.5t-50.5 134t-15.5 154.5q0 88 13.5 155.5t50.5 120.5q33 49 92 84t127 35q61 0 104 -22.5t67 -53t33 -55t13 -39.5h39 q6 68 19.5 118t27.5 75q-90 39 -157.5 55t-155.5 16q-133 0 -235.5 -43t-169 -116.5t-99.5 -166.5t-33 -198z" />
<glyph unicode="&#xe8;" horiz-adv-x="1099" d="M90 502q0 -41 3 -82t16.5 -95.5t42 -110.5t75.5 -103q39 -41 90.5 -68t104.5 -42t97 -20.5t79 -5.5q68 0 129 13.5t106.5 31t73 35t35.5 25.5l19 88q4 14 16 43l-23 14q-49 -57 -134 -93t-156 -36q-113 0 -181.5 45t-99.5 110.5t-38 122t-7 109.5h672q0 119 -16.5 198 t-43.5 130q-35 66 -88 104.5t-108.5 56t-98.5 21.5t-90 4q-92 0 -177 -30.5t-152.5 -92t-106.5 -155.5t-39 -217zM229 1432q0 -31 12.5 -48.5t30.5 -27.5l334 -207h105l-289 311l-2 4q-27 25 -48.5 38.5t-52.5 13.5q-29 0 -59.5 -21.5t-30.5 -62.5zM342 584v2q2 49 9 98 t29.5 103.5t69 91t119.5 36.5q72 0 115 -34.5t62.5 -87t23.5 -101.5t4 -108h-432z" />
<glyph unicode="&#xe9;" horiz-adv-x="1099" d="M90 502q0 -41 3 -82t16.5 -95.5t42 -110.5t75.5 -103q39 -41 90.5 -68t104.5 -42t97 -20.5t79 -5.5q68 0 129 13.5t106.5 31t73 35t35.5 25.5l19 88q4 14 16 43l-23 14q-49 -57 -134 -93t-156 -36q-113 0 -181.5 45t-99.5 110.5t-38 122t-7 109.5h672q0 119 -16.5 198 t-43.5 130q-35 66 -88 104.5t-108.5 56t-98.5 21.5t-90 4q-92 0 -177 -30.5t-152.5 -92t-106.5 -155.5t-39 -217zM342 584v2q2 49 9 98t29.5 103.5t69 91t119.5 36.5q72 0 115 -34.5t62.5 -87t23.5 -101.5t4 -108h-432zM410 1167h104l336 207q18 12 30.5 29.5t12.5 46.5 q0 37 -27.5 60.5t-68.5 23.5q-27 0 -51.5 -15.5t-47.5 -39.5z" />
<glyph unicode="&#xea;" horiz-adv-x="1099" d="M90 502q0 -41 3 -82t16.5 -95.5t42 -110.5t75.5 -103q39 -41 90.5 -68t104.5 -42t97 -20.5t79 -5.5q68 0 129 13.5t106.5 31t73 35t35.5 25.5l19 88q4 14 16 43l-23 14q-49 -57 -134 -93t-156 -36q-113 0 -181.5 45t-99.5 110.5t-38 122t-7 109.5h672q0 119 -16.5 198 t-43.5 130q-35 66 -88 104.5t-108.5 56t-98.5 21.5t-90 4q-92 0 -177 -30.5t-152.5 -92t-106.5 -155.5t-39 -217zM217 1149h100l234 205l231 -205h103l-254 352h-162zM342 584v2q2 49 9 98t29.5 103.5t69 91t119.5 36.5q72 0 115 -34.5t62.5 -87t23.5 -101.5t4 -108h-432z " />
<glyph unicode="&#xeb;" horiz-adv-x="1099" d="M90 502q0 -41 3 -82t16.5 -95.5t42 -110.5t75.5 -103q39 -41 90.5 -68t104.5 -42t97 -20.5t79 -5.5q68 0 129 13.5t106.5 31t73 35t35.5 25.5l19 88q4 14 16 43l-23 14q-49 -57 -134 -93t-156 -36q-113 0 -181.5 45t-99.5 110.5t-38 122t-7 109.5h672q0 119 -16.5 198 t-43.5 130q-35 66 -88 104.5t-108.5 56t-98.5 21.5t-90 4q-92 0 -177 -30.5t-152.5 -92t-106.5 -155.5t-39 -217zM219 1290q0 -49 35 -85t86 -36t86 37t35 84q0 49 -35 85t-86 36t-86 -35t-35 -86zM342 584v2q2 49 9 98t29.5 103.5t69 91t119.5 36.5q72 0 115 -34.5 t62.5 -87t23.5 -101.5t4 -108h-432zM639 1290q0 -49 35 -85t86 -36t86 37t35 84q0 49 -35 85t-86 36t-86 -35t-35 -86z" />
<glyph unicode="&#xec;" horiz-adv-x="530" d="M-55 1432q0 -31 12 -48.5t31 -27.5l334 -207h104l-289 311l-2 4q-27 25 -48 38.5t-52 13.5q-29 0 -59.5 -21.5t-30.5 -62.5zM131 983q10 -100 15.5 -244.5t5.5 -263.5q0 -51 -2.5 -114.5t-4.5 -139.5l-10 -221h6q86 12 133 12q43 0 111 -10l8 -2q0 14 -4 82 q-2 31 -3 54.5t-1 31.5q-2 74 -4 193.5t-2 179.5q0 29 1 65.5t3 95t8 189.5l4 92q-33 -6 -60.5 -9t-66.5 -3q-37 0 -63.5 3t-65.5 9h-8z" />
<glyph unicode="&#xed;" horiz-adv-x="530" d="M104 1167h105l336 207q18 12 30.5 29.5t12.5 46.5q0 37 -28 60.5t-68 23.5q-27 0 -51.5 -15.5t-47.5 -39.5zM131 983q10 -100 15.5 -244.5t5.5 -263.5q0 -51 -2.5 -114.5t-4.5 -139.5l-10 -221h6q86 12 133 12q43 0 111 -10l8 -2q0 14 -4 82q-2 31 -3 54.5t-1 31.5 q-2 74 -4 193.5t-2 179.5q0 29 1 65.5t3 95t8 189.5l4 92q-33 -6 -60.5 -9t-66.5 -3q-37 0 -63.5 3t-65.5 9h-8z" />
<glyph unicode="&#xee;" horiz-adv-x="530" d="M-68 1149h101l233 205l232 -205h102l-254 352h-162zM131 983q10 -100 15.5 -244.5t5.5 -263.5q0 -51 -2.5 -114.5t-4.5 -139.5l-10 -221h6q86 12 133 12q43 0 111 -10l8 -2q0 14 -4 82q-2 31 -3 54.5t-1 31.5q-2 74 -4 193.5t-2 179.5q0 29 1 65.5t3 95t8 189.5l4 92 q-33 -6 -60.5 -9t-66.5 -3q-37 0 -63.5 3t-65.5 9h-8z" />
<glyph unicode="&#xef;" horiz-adv-x="530" d="M-66 1290q0 -49 35 -85t86 -36t86 37t35 84q0 49 -35 85t-86 36t-86 -35t-35 -86zM131 983q10 -100 15.5 -244.5t5.5 -263.5q0 -51 -2.5 -114.5t-4.5 -139.5l-10 -221h6q86 12 133 12q43 0 111 -10l8 -2q0 14 -4 82q-2 31 -3 54.5t-1 31.5q-2 74 -4 193.5t-2 179.5 q0 29 1 65.5t3 95t8 189.5l4 92q-33 -6 -60.5 -9t-66.5 -3q-37 0 -63.5 3t-65.5 9h-8zM354 1290q0 -49 35 -85t86 -36t86 37t35 84q0 49 -35 85t-86 36t-86 -35t-35 -86z" />
<glyph unicode="&#xf0;" horiz-adv-x="1214" d="M92 485q0 -236 140.5 -373t373.5 -137q240 0 377 136.5t137 390.5q0 248 -115.5 440.5t-322.5 349.5q106 43 285 88q-35 47 -58 95q-102 -49 -288 -115l-15 -4q-131 100 -270 174q-33 -18 -61.5 -29.5t-86.5 -32.5q141 -86 246 -174q-154 -57 -287 -90q18 -25 32 -44 t26 -50q70 35 136.5 60.5t166.5 58.5q72 -66 125 -124t88 -118q-51 10 -115 10q-233 0 -373.5 -138t-140.5 -374zM348 487q0 76 10.5 148t38 136.5t78.5 104t131 39.5t131 -39.5t79 -103t38 -135.5t10 -150t-10 -149.5t-38 -136t-79 -104.5t-131 -40t-131 40t-78.5 104.5 t-38 136t-10.5 149.5z" />
<glyph unicode="&#xf1;" horiz-adv-x="1175" d="M131 0q86 12 129 12q8 0 39 -3t68 -7q18 -2 22 -2q-8 106 -11 215t-3 248q0 74 8 152.5t27 117.5q25 51 75 85t107 34q70 0 121 -33t69 -102q10 -35 12.5 -121t2.5 -209q0 -84 -6.5 -201.5t-18.5 -185.5q8 0 33 4q70 8 100 8q31 0 88 -6q29 -4 45 -6q-6 37 -10 107.5 t-4 144.5q0 43 2 133t2 113q4 133 4 149q0 166 -88 256t-254 90q-111 0 -179.5 -43t-137.5 -137q0 80 1 102.5t9 67.5l-10 -2q-31 -6 -50.5 -8t-52.5 -2q-74 0 -135 12q8 -80 10 -105.5t5 -72.5q2 -72 2 -258q0 -180 -5 -262q-2 -57 -6 -126t-10 -159zM242 1194h73 q14 39 41 64.5t66 25.5q25 0 100 -33q63 -27 109.5 -41t93.5 -14q59 0 100 24.5t67 61.5t38 72t22 71h-73q-12 -37 -35 -63.5t-74 -26.5q-33 0 -129 39q-4 2 -14 6l-4 2q-51 18 -87 29.5t-69 11.5q-53 0 -93 -23.5t-65.5 -59t-40 -69.5t-26.5 -77z" />
<glyph unicode="&#xf2;" horiz-adv-x="1214" d="M92 485q0 -236 140.5 -373t373.5 -137q238 0 376 136.5t138 373.5q0 248 -137 380t-377 132q-233 0 -373.5 -138t-140.5 -374zM287 1432q0 -31 12 -48.5t31 -27.5l334 -207h104l-289 311l-2 4q-27 25 -48 38.5t-52 13.5q-29 0 -59.5 -21.5t-30.5 -62.5zM348 487 q0 76 10.5 148t38 136.5t78.5 104t131 39.5t131 -39.5t79 -103t38 -135.5t10 -150t-10 -149.5t-38 -136t-79 -104.5t-131 -40t-131 40t-78.5 104.5t-38 136t-10.5 149.5z" />
<glyph unicode="&#xf3;" horiz-adv-x="1214" d="M92 485q0 -236 140.5 -373t373.5 -137q238 0 376 136.5t138 373.5q0 248 -137 380t-377 132q-233 0 -373.5 -138t-140.5 -374zM348 487q0 76 10.5 148t38 136.5t78.5 104t131 39.5t131 -39.5t79 -103t38 -135.5t10 -150t-10 -149.5t-38 -136t-79 -104.5t-131 -40t-131 40 t-78.5 104.5t-38 136t-10.5 149.5zM446 1167h105l336 207q18 12 30.5 29.5t12.5 46.5q0 37 -28 60.5t-68 23.5q-27 0 -51.5 -15.5t-47.5 -39.5z" />
<glyph unicode="&#xf4;" horiz-adv-x="1214" d="M92 485q0 -236 140.5 -373t373.5 -137q238 0 376 136.5t138 373.5q0 248 -137 380t-377 132q-233 0 -373.5 -138t-140.5 -374zM274 1149h101l233 205l232 -205h102l-254 352h-162zM348 487q0 76 10.5 148t38 136.5t78.5 104t131 39.5t131 -39.5t79 -103t38 -135.5 t10 -150t-10 -149.5t-38 -136t-79 -104.5t-131 -40t-131 40t-78.5 104.5t-38 136t-10.5 149.5z" />
<glyph unicode="&#xf5;" horiz-adv-x="1214" d="M92 485q0 -236 140.5 -373t373.5 -137q238 0 376 136.5t138 373.5q0 248 -137 380t-377 132q-233 0 -373.5 -138t-140.5 -374zM260 1194h74q14 39 40.5 64.5t65.5 25.5q25 0 101 -33q63 -27 109 -41t93 -14q59 0 100.5 24.5t67 61.5t38 72t22.5 71h-74 q-12 -37 -34.5 -63.5t-74.5 -26.5q-33 0 -129 39q-4 2 -14 6l-4 2q-51 18 -87 29.5t-69 11.5q-53 0 -93 -23.5t-65.5 -59t-40 -69.5t-26.5 -77zM348 487q0 76 10.5 148t38 136.5t78.5 104t131 39.5t131 -39.5t79 -103t38 -135.5t10 -150t-10 -149.5t-38 -136t-79 -104.5 t-131 -40t-131 40t-78.5 104.5t-38 136t-10.5 149.5z" />
<glyph unicode="&#xf6;" horiz-adv-x="1214" d="M92 485q0 -236 140.5 -373t373.5 -137q238 0 376 136.5t138 373.5q0 248 -137 380t-377 132q-233 0 -373.5 -138t-140.5 -374zM276 1290q0 -49 35 -85t86 -36t86 37t35 84q0 49 -34.5 85t-86.5 36q-51 0 -86 -35t-35 -86zM348 487q0 76 10.5 148t38 136.5t78.5 104 t131 39.5t131 -39.5t79 -103t38 -135.5t10 -150t-10 -149.5t-38 -136t-79 -104.5t-131 -40t-131 40t-78.5 104.5t-38 136t-10.5 149.5zM696 1290q0 -49 35 -85t86 -36t86 37t35 84q0 49 -35 85t-86 36t-86 -35t-35 -86z" />
<glyph unicode="&#xf7;" horiz-adv-x="1366" d="M152 559h1062v133h-1062v-133zM549 227q0 -55 40 -94t95 -39q53 0 93 40t40 93t-41 94t-92 41q-55 0 -95 -39.5t-40 -95.5zM549 1022q0 -55 40 -94t95 -39q53 0 93 40t40 93t-41 94t-92 41q-55 0 -95 -40t-40 -95z" />
<glyph unicode="&#xf8;" horiz-adv-x="1214" d="M84 -80l70 -57l155 190q63 -41 142 -59.5t163 -18.5q248 0 377 144.5t129 398.5q0 104 -34.5 194.5t-106.5 157.5l160 189l-70 57l-162 -194q-125 76 -313 75q-229 0 -365.5 -141t-136.5 -373q0 -121 39 -214t109 -163zM348 496q0 74 11.5 145.5t39 134t79.5 101 t130 38.5q70 0 118 -31.5t79 -86.5l-432 -529q-16 59 -20.5 113.5t-4.5 114.5zM408 174q63 76 164.5 201t111.5 135q117 143 156 192q16 -57 20 -110t4 -100q0 -82 -9 -155t-36.5 -137.5t-81 -103.5t-135.5 -39q-63 0 -113.5 33t-80.5 84z" />
<glyph unicode="&#xf9;" horiz-adv-x="1175" d="M137 983q8 -68 10.5 -107.5t2.5 -107.5q0 -72 -5 -215q-4 -145 -4 -217q0 -39 8.5 -94.5t32.5 -102.5q43 -78 120 -120t167 -42q66 0 118 17.5t92 46.5t66.5 57.5t55.5 67.5q0 -68 -1 -88.5t-7 -77.5q14 2 26 4q59 8 90 8q20 0 64 -6q37 -4 65 -6v6q-6 55 -8 82t-4 76 t-3 112.5t-1 157.5q0 246 20 549q-47 -6 -78.5 -9t-60.5 -3q-45 0 -119 12q10 -80 12.5 -202t2.5 -283q0 -70 -8.5 -142.5t-26.5 -109.5q-20 -41 -65.5 -79t-127.5 -38q-63 0 -113 36t-67 97q-4 14 -7 50t-5 83q-2 68 -2 142q0 37 1 101t4 125.5t8 124t11 95.5 q-68 -12 -133 -12q-59 0 -131 12zM268 1432q0 -31 12.5 -48.5t30.5 -27.5l334 -207h105l-289 311l-2 4q-27 25 -48.5 38.5t-52.5 13.5q-29 0 -59.5 -21.5t-30.5 -62.5z" />
<glyph unicode="&#xfa;" horiz-adv-x="1175" d="M137 983q8 -68 10.5 -107.5t2.5 -107.5q0 -72 -5 -215q-4 -145 -4 -217q0 -39 8.5 -94.5t32.5 -102.5q43 -78 120 -120t167 -42q66 0 118 17.5t92 46.5t66.5 57.5t55.5 67.5q0 -68 -1 -88.5t-7 -77.5q14 2 26 4q59 8 90 8q20 0 64 -6q37 -4 65 -6v6q-6 55 -8 82t-4 76 t-3 112.5t-1 157.5q0 246 20 549q-47 -6 -78.5 -9t-60.5 -3q-45 0 -119 12q10 -80 12.5 -202t2.5 -283q0 -70 -8.5 -142.5t-26.5 -109.5q-20 -41 -65.5 -79t-127.5 -38q-63 0 -113 36t-67 97q-4 14 -7 50t-5 83q-2 68 -2 142q0 37 1 101t4 125.5t8 124t11 95.5 q-68 -12 -133 -12q-59 0 -131 12zM489 1167h105l336 207q18 12 30.5 29.5t12.5 46.5q0 37 -27.5 60.5t-68.5 23.5q-27 0 -51.5 -15.5t-47.5 -39.5z" />
<glyph unicode="&#xfb;" horiz-adv-x="1175" d="M137 983q8 -68 10.5 -107.5t2.5 -107.5q0 -72 -5 -215q-4 -145 -4 -217q0 -39 8.5 -94.5t32.5 -102.5q43 -78 120 -120t167 -42q66 0 118 17.5t92 46.5t66.5 57.5t55.5 67.5q0 -68 -1 -88.5t-7 -77.5q14 2 26 4q59 8 90 8q20 0 64 -6q37 -4 65 -6v6q-6 55 -8 82t-4 76 t-3 112.5t-1 157.5q0 246 20 549q-47 -6 -78.5 -9t-60.5 -3q-45 0 -119 12q10 -80 12.5 -202t2.5 -283q0 -70 -8.5 -142.5t-26.5 -109.5q-20 -41 -65.5 -79t-127.5 -38q-63 0 -113 36t-67 97q-4 14 -7 50t-5 83q-2 68 -2 142q0 37 1 101t4 125.5t8 124t11 95.5 q-68 -12 -133 -12q-59 0 -131 12zM256 1149h100l234 205l231 -205h103l-254 352h-162z" />
<glyph unicode="&#xfc;" horiz-adv-x="1175" d="M137 983q8 -68 10.5 -107.5t2.5 -107.5q0 -72 -5 -215q-4 -145 -4 -217q0 -39 8.5 -94.5t32.5 -102.5q43 -78 120 -120t167 -42q66 0 118 17.5t92 46.5t66.5 57.5t55.5 67.5q0 -68 -1 -88.5t-7 -77.5q14 2 26 4q59 8 90 8q20 0 64 -6q37 -4 65 -6v6q-6 55 -8 82t-4 76 t-3 112.5t-1 157.5q0 246 20 549q-47 -6 -78.5 -9t-60.5 -3q-45 0 -119 12q10 -80 12.5 -202t2.5 -283q0 -70 -8.5 -142.5t-26.5 -109.5q-20 -41 -65.5 -79t-127.5 -38q-63 0 -113 36t-67 97q-4 14 -7 50t-5 83q-2 68 -2 142q0 37 1 101t4 125.5t8 124t11 95.5 q-68 -12 -133 -12q-59 0 -131 12zM258 1290q0 -49 35 -85t86 -36t86 37t35 84q0 49 -35 85t-86 36t-86 -35t-35 -86zM678 1290q0 -49 35 -85t86 -36t86 37t35 84q0 49 -35 85t-86 36t-86 -35t-35 -86z" />
<glyph unicode="&#xfd;" d="M16 983l244 -543l39 -88q63 -145 88 -203.5t37 -88t19.5 -51t15.5 -46.5q-6 -12 -46 -91t-69 -135t-64.5 -123t-50.5 -89l-32 -53q53 12 94 12q39 0 92 -12q23 94 104.5 305t188 458.5t203 458.5t135.5 289q-57 -12 -92 -12q-41 0 -91 12q-16 -49 -35.5 -112.5 t-39.5 -129.5q0 -2 -23.5 -70.5t-41 -117.5t-40 -108.5t-39.5 -98.5l-37 -86l-96 234q-12 31 -38.5 100.5t-54.5 145t-52.5 144t-32.5 99.5q-94 -12 -141 -12q-29 0 -61.5 3t-82.5 9zM414 1167h104l336 207q18 12 30.5 29.5t12.5 46.5q0 37 -27.5 60.5t-68.5 23.5 q-27 0 -51.5 -15.5t-47.5 -39.5z" />
<glyph unicode="&#xfe;" horiz-adv-x="1214" d="M131 -532q31 8 53.5 10t73.5 2q49 0 74.5 -3t60.5 -9q-12 133 -17 282.5t-5 372.5q63 -63 124.5 -98t166.5 -35q119 0 207.5 45t144 119.5t82 165t26.5 182.5q0 96 -29.5 188t-87 165t-139.5 115t-184 42q-113 0 -191.5 -50.5t-128.5 -121.5q0 348 39 678q-12 0 -53 -7 q-53 -6 -80 -6q-35 0 -108 8l-27 5q14 -152 18.5 -388.5t4.5 -627.5q0 -352 -5.5 -606t-19.5 -428zM371 492q0 66 11 134t39 127.5t77 96.5t120 37q82 0 133.5 -44t76 -108.5t31.5 -129.5t7 -124q0 -63 -11 -129.5t-37.5 -124t-74 -94.5t-116.5 -37q-76 0 -127 35t-79 92.5 t-39 126t-11 142.5z" />
<glyph unicode="&#xff;" d="M16 983l244 -543l39 -88q63 -145 88 -203.5t37 -88t19.5 -51t15.5 -46.5q-6 -12 -46 -91t-69 -135t-64.5 -123t-50.5 -89l-32 -53q53 12 94 12q39 0 92 -12q23 94 104.5 305t188 458.5t203 458.5t135.5 289q-57 -12 -92 -12q-41 0 -91 12q-16 -49 -35.5 -112.5 t-39.5 -129.5q0 -2 -23.5 -70.5t-41 -117.5t-40 -108.5t-39.5 -98.5l-37 -86l-96 234q-12 31 -38.5 100.5t-54.5 145t-52.5 144t-32.5 99.5q-94 -12 -141 -12q-29 0 -61.5 3t-82.5 9zM193 1290q0 -49 34.5 -85t85.5 -36t86 37t35 84q0 49 -34.5 85t-86.5 36q-51 0 -85.5 -35 t-34.5 -86zM612 1290q0 -49 35 -85t86 -36t86 37t35 84q0 49 -35 85t-86 36t-86 -35t-35 -86z" />
<glyph unicode="&#x152;" horiz-adv-x="2048" d="M84 692q0 -180 59.5 -318t161 -227.5t223 -132.5t246.5 -43q51 0 119 12.5t137.5 35t125.5 57.5t83 76q0 -43 -1 -70t-5 -82q166 12 371 12q184 0 368 -12q-10 29 -10 74t10 67q-74 -4 -155.5 -6t-194.5 -5t-135 -3v555q92 0 280 -4q51 -2 158 -10q-10 25 -10 69 q0 37 10 74q-33 -4 -92 -7t-129 -5q-100 -2 -217 -2v481h182t98 -4l193 -10q-10 27 -10 75q0 25 10 66q-51 -2 -141 -6q-158 -6 -224 -6q-70 0 -176 4t-188 8q4 -68 4 -87.5v-68.5q-47 39 -84 64.5t-90 51.5t-123 41t-158 15q-150 0 -277.5 -49t-222 -145.5t-145.5 -231.5 t-51 -303zM358 684q0 117 26 227.5t79 202.5t140 147.5t206 55.5q92 0 171 -35t140.5 -108.5t95 -190t33.5 -274.5q0 -115 -23.5 -226.5t-76.5 -204t-138 -147.5t-202 -55q-86 0 -166 37t-144.5 111.5t-102.5 190t-38 269.5z" />
<glyph unicode="&#x153;" horiz-adv-x="1820" d="M90 483q0 -113 36 -206t103.5 -161.5t160.5 -104.5t206 -36q121 0 213 37t152 86q68 -59 164 -91t194 -32q66 0 126 12.5t111 30.5q86 33 111 62q2 12 6 35q6 35 11.5 57.5t15.5 38.5l-23 14q-55 -66 -141 -97.5t-150 -31.5q-170 0 -246.5 105.5t-76.5 281.5h670 q0 262 -103.5 388t-339.5 126q-188 0 -327 -114q-59 49 -151.5 81.5t-219.5 32.5q-229 0 -365.5 -141t-136.5 -373zM346 496q0 74 11.5 145.5t39 135t79.5 102.5t130 39q88 0 142.5 -51.5t78 -124t29.5 -135t6 -115.5q0 -78 -9 -151t-37 -137.5t-81 -105.5t-135 -41 q-80 0 -131 42t-77.5 108.5t-36 139.5t-9.5 149zM1065 584v2q2 47 10 96t29.5 103.5t68 92t117.5 37.5q74 0 117 -34.5t62.5 -87t23.5 -101.5t4 -108h-432z" />
<glyph unicode="&#x178;" horiz-adv-x="1214" d="M-27 1405q47 -76 136 -223q78 -129 139 -231.5t110 -186.5l121 -209q0 -88 -4 -264q0 -61 -3 -152.5t-5 -138.5l31 4q74 8 106 8q31 0 94 -8q25 -2 47 -4q0 10 -4 78q-6 164 -8 227.5t-2 167.5v76q0 20 27 65q39 66 96 170q106 190 162 279q0 2 18 29q4 6 43 68.5 t63.5 102.5t49 79.5t37.5 62.5q-33 -12 -86 -12t-119 12q-70 -152 -101.5 -220.5t-66.5 -137t-78 -146.5t-108 -188q-68 119 -117 210t-87 164.5t-71 141t-84 176.5q-72 -12 -168 -12q-33 0 -69.5 3t-98.5 9zM297 1618q0 -49 35 -85t86 -36t86 37t35 84q0 49 -35 85t-86 36 t-86 -35t-35 -86zM717 1618q0 -49 34.5 -85t86.5 -36q51 0 85.5 37t34.5 84q0 49 -34.5 85t-85.5 36t-86 -35t-35 -86z" />
<glyph unicode="&#x2c6;" horiz-adv-x="530" d="M-68 1149h101l233 205l232 -205h102l-254 352h-162z" />
<glyph unicode="&#x2dc;" horiz-adv-x="530" d="M-82 1194h74q14 39 40.5 64.5t65.5 25.5q25 0 101 -33q63 -27 109 -41t93 -14q59 0 100.5 24.5t67 61.5t37.5 72t23 71h-74q-12 -37 -34.5 -63.5t-74.5 -26.5q-33 0 -129 39q-4 2 -14 6l-4 2q-51 18 -87 29.5t-69 11.5q-53 0 -93 -23.5t-65.5 -59t-40 -69.5t-26.5 -77z " />
<glyph unicode="&#x2000;" horiz-adv-x="941" />
<glyph unicode="&#x2001;" horiz-adv-x="1882" />
<glyph unicode="&#x2002;" horiz-adv-x="941" />
<glyph unicode="&#x2003;" horiz-adv-x="1882" />
<glyph unicode="&#x2004;" horiz-adv-x="627" />
<glyph unicode="&#x2005;" horiz-adv-x="470" />
<glyph unicode="&#x2006;" horiz-adv-x="313" />
<glyph unicode="&#x2007;" horiz-adv-x="313" />
<glyph unicode="&#x2008;" horiz-adv-x="235" />
<glyph unicode="&#x2009;" horiz-adv-x="376" />
<glyph unicode="&#x200a;" horiz-adv-x="104" />
<glyph unicode="&#x2010;" horiz-adv-x="833" d="M137 403q47 2 130 4.5t134 2.5t156 -4q98 -2 139 -3q-2 12 -4 37q-6 53 -6 70q0 25 8 84q2 16 2 22q-98 -2 -165.5 -4t-139.5 -2q-170 0 -254 6q6 -29 8 -48t2 -46q0 -33 -8 -106z" />
<glyph unicode="&#x2011;" horiz-adv-x="833" d="M137 403q47 2 130 4.5t134 2.5t156 -4q98 -2 139 -3q-2 12 -4 37q-6 53 -6 70q0 25 8 84q2 16 2 22q-98 -2 -165.5 -4t-139.5 -2q-170 0 -254 6q6 -29 8 -48t2 -46q0 -33 -8 -106z" />
<glyph unicode="&#x2012;" horiz-adv-x="833" d="M137 403q47 2 130 4.5t134 2.5t156 -4q98 -2 139 -3q-2 12 -4 37q-6 53 -6 70q0 25 8 84q2 16 2 22q-98 -2 -165.5 -4t-139.5 -2q-170 0 -254 6q6 -29 8 -48t2 -46q0 -33 -8 -106z" />
<glyph unicode="&#x2013;" d="M-6 426h1036v172h-1036v-172z" />
<glyph unicode="&#x2014;" horiz-adv-x="2048" d="M266 426h1516v172h-1516v-172z" />
<glyph unicode="&#x2018;" horiz-adv-x="530" d="M66 913q0 -45 29.5 -73.5t74.5 -28.5q63 0 92 40t47 114l129 479l-45 20l-272 -420q-31 -47 -43 -73.5t-12 -57.5z" />
<glyph unicode="&#x2019;" horiz-adv-x="530" d="M92 831l45 -20l273 420q31 47 43 73.5t12 57.5q0 45 -28.5 73.5t-76.5 28.5q-61 0 -90.5 -40t-48.5 -113z" />
<glyph unicode="&#x201a;" horiz-adv-x="530" d="M63 -344l46 -21l272 420q31 47 43 74t12 57q0 45 -28.5 74t-75.5 29q-61 0 -91 -40t-48 -114z" />
<glyph unicode="&#x201c;" horiz-adv-x="909" d="M74 913q0 -45 29.5 -73.5t74.5 -28.5q63 0 92 40t47 114l129 479l-45 20l-272 -420q-31 -47 -43 -73.5t-12 -57.5zM444 913q0 -45 30 -73.5t75 -28.5q63 0 92 40t47 114l129 479l-45 20l-272 -420q-31 -47 -43.5 -73.5t-12.5 -57.5z" />
<glyph unicode="&#x201d;" horiz-adv-x="909" d="M92 831l45 -20l273 420q31 47 43 73.5t12 57.5q0 45 -28.5 73.5t-76.5 28.5q-61 0 -90.5 -40t-48.5 -113zM463 831l45 -20l272 420q31 47 43.5 73.5t12.5 57.5q0 45 -29 73.5t-76 28.5q-61 0 -91 -40t-48 -113z" />
<glyph unicode="&#x201e;" horiz-adv-x="909" d="M63 -344l46 -21l272 420q31 47 43 74t12 57q0 45 -28.5 74t-75.5 29q-61 0 -91 -40t-48 -114zM434 -344l45 -21l273 420q31 47 43 74t12 57q0 45 -28.5 74t-76.5 29q-61 0 -90.5 -40t-48.5 -114z" />
<glyph unicode="&#x2022;" d="M156 719q0 -72 27.5 -136.5t77.5 -114.5t114.5 -78t136.5 -28t136.5 28t114.5 78t77.5 114.5t27.5 136.5t-27.5 137.5t-77.5 114.5t-114.5 76.5t-136.5 27.5t-136.5 -27.5t-113.5 -76.5t-77.5 -114.5t-28.5 -137.5z" />
<glyph unicode="&#x2026;" horiz-adv-x="2048" d="M197 141q0 -59 42 -102t103 -43q59 0 102 43t43 102t-43 102.5t-102 43.5q-61 0 -103 -43.5t-42 -102.5zM879 141q0 -59 42 -102t103 -43q59 0 102 43t43 102t-43 102.5t-102 43.5q-61 0 -103 -43.5t-42 -102.5zM1561 141q0 -59 42 -102t103 -43q59 0 102 43t43 102 t-43 102.5t-102 43.5q-61 0 -103 -43.5t-42 -102.5z" />
<glyph unicode="&#x202f;" horiz-adv-x="376" />
<glyph unicode="&#x2039;" horiz-adv-x="569" d="M98 502q59 -74 116.5 -157t133.5 -204l12 -18q35 31 52.5 43t56.5 39l-68 90q-10 12 -94 127q-10 16 -57 80q25 41 49.5 81t58 91t62.5 90t49 61q-37 20 -55.5 33.5t-53.5 42.5l-6 4q-35 -66 -155 -252q-8 -10 -41 -61z" />
<glyph unicode="&#x203a;" horiz-adv-x="569" d="M100 205q10 -6 11 -8q31 -20 48 -33.5t50 -40.5q10 16 40 61t64.5 98.5t77.5 114t78 105.5l-57 90q-6 10 -16.5 25.5t-41.5 58.5q-12 20 -22 35q-2 4 -6 10q-23 37 -50.5 82t-62.5 102q-35 -29 -53.5 -42t-59.5 -38q14 -16 40 -51t58.5 -82t63.5 -96t55 -94 q-27 -39 -54 -75t-72.5 -98.5t-63.5 -88t-27 -35.5z" />
<glyph unicode="&#x205f;" horiz-adv-x="470" />
<glyph unicode="&#x2122;" horiz-adv-x="1947" d="M127 1315q78 6 242 6q2 -49 2 -109v-299q0 -61 -6 -184q-2 -20 -5 -61q47 8 84 8q23 0 49.5 -2t41.5 -6l-3 18q-2 29 -3 58.5t-1 68.5v395q0 74 2 113q78 0 131.5 -1t98.5 -5l-2 20q-4 20 -4 29q0 14 6 41q-137 -8 -309 -8q-61 0 -161 2t-163 6q6 -20 6 -43q0 -29 -6 -47 zM772 668l14 2q29 6 43 6q10 0 37 -4q6 -2 25 -4q4 102 15.5 205.5t29.5 244.5l2 12q2 -4 17.5 -29.5t32 -52t61.5 -100.5q53 -88 83.5 -141t63.5 -111l14 -28q6 0 15 2q8 2 14 2q4 0 12 -2q10 -2 17 -2q25 51 60.5 117.5t74.5 132t73.5 123t63.5 100.5q0 -6 5 -44t11 -91 q4 -33 10.5 -88.5t8.5 -73.5q4 -41 7 -92.5t5 -83.5q51 8 86 8q37 0 90 -8q-4 18 -11 54t-14 79t-13.5 81t-8.5 58q-2 14 -16 123q-23 162 -31 252l-8 90q-8 0 -21 -2h-14h-12q-8 2 -17 2l-4 -6q-94 -174 -167.5 -301t-147.5 -242l-59 94q-35 55 -68 109.5t-56.5 94.5 t-45 79t-56.5 102l-35 70q-6 0 -16 -2h-14h-15q-12 2 -20 2q-51 -410 -121 -737z" />
<glyph unicode="&#xe000;" horiz-adv-x="983" d="M0 0v983h983v-983h-983z" />
</font>
</defs>
</svg>
